<?xml version="1.0" encoding="utf-8"?>
<!-- Generator: Adobe Illustrator 26.2.1, SVG Export Plug-In . SVG Version: 6.00 Build 0)  -->
<svg version="1.1" id="レイヤー_1" xmlns="http://www.w3.org/2000/svg" xmlns:xlink="http://www.w3.org/1999/xlink" x="0px"
	 y="0px" viewBox="0 0 95 95" style="enable-background:new 0 0 95 95;" xml:space="preserve">
<style type="text/css">
	.st0{fill:#FFFFFF;}
</style>
<g>
	<g>
		<path class="st0" d="M51.97,42.9c-1.83,0-3.26-1.93-3.26-4.4c0-2.47,1.43-4.41,3.26-4.41c1.83,0,3.27,1.93,3.27,4.41
			C55.23,40.97,53.8,42.9,51.97,42.9z M51.97,35.44c-1.04,0-1.92,1.4-1.92,3.06c0,1.66,0.88,3.06,1.92,3.06
			c1.04,0,1.92-1.4,1.92-3.06C53.89,36.84,53.01,35.44,51.97,35.44z"/>
	</g>
	<g>
		<path class="st0" d="M58.93,46.64c-1.57,0-2.81-1.65-2.81-3.74c0-2.1,1.23-3.74,2.81-3.74c1.57,0,2.81,1.65,2.81,3.74
			C61.74,44.99,60.5,46.64,58.93,46.64z M58.93,40.49c-0.79,0-1.46,1.1-1.46,2.4c0,1.3,0.67,2.4,1.46,2.4c0.79,0,1.46-1.1,1.46-2.4
			C60.39,41.59,59.72,40.49,58.93,40.49z"/>
	</g>
	<g>
		<path class="st0" d="M37.73,46.64c-1.57,0-2.81-1.65-2.81-3.74c0-2.1,1.23-3.74,2.81-3.74c1.57,0,2.81,1.65,2.81,3.74
			C40.54,44.99,39.31,46.64,37.73,46.64z M37.73,40.49c-0.79,0-1.46,1.1-1.46,2.4c0,1.3,0.67,2.4,1.46,2.4c0.79,0,1.46-1.1,1.46-2.4
			C39.2,41.59,38.53,40.49,37.73,40.49z"/>
	</g>
	<g>
		<path class="st0" d="M44.19,42.9c-1.83,0-3.26-1.93-3.26-4.4c0-2.47,1.43-4.41,3.26-4.41c1.83,0,3.27,1.93,3.27,4.41
			C47.46,40.97,46.02,42.9,44.19,42.9z M44.19,35.44c-1.04,0-1.92,1.4-1.92,3.06c0,1.66,0.88,3.06,1.92,3.06
			c1.04,0,1.92-1.4,1.92-3.06C46.12,36.84,45.24,35.44,44.19,35.44z"/>
	</g>
	<g>
		<g>
			<path class="st0" d="M52.57,58.55c-2.31,0-3.52-0.97-4.23-2.11c-0.7,1.1-1.92,2.11-4.25,2.11c-2.99,0-5.24-2.29-5.24-5.33
				c0-3.34,2.58-5.9,5-8.03c2.49-2.2,6.25-2.19,8.74,0.02c3.01,2.68,5.32,4.93,5.32,7.58C57.9,56.77,55.22,58.55,52.57,58.55z
				 M48.34,54.22c0.28,0,0.53,0.17,0.63,0.44c0.57,1.53,1.4,2.55,3.6,2.55c1.93,0,3.99-1.16,3.99-4.42c0-2.09-2.2-4.22-4.86-6.58
				c-1.98-1.76-4.98-1.77-6.96-0.02c-2.2,1.94-4.54,4.25-4.54,7.03c0,2.31,1.64,3.99,3.9,3.99c2.29,0,3.08-1.15,3.58-2.41l0.04-0.12
				c0.09-0.27,0.34-0.46,0.62-0.46C48.33,54.22,48.34,54.22,48.34,54.22z"/>
		</g>
	</g>
</g>
<g>
	<g>
		<path class="st0" d="M33.63,66.92c-3.25,0-5.9-2.65-5.9-5.9v-29.4c0-3.25,2.65-5.9,5.9-5.9c0.37,0,0.67,0.3,0.67,0.67
			c0,0.37-0.3,0.67-0.67,0.67c-2.51,0-4.56,2.04-4.56,4.56v29.4c0,2.51,2.04,4.56,4.56,4.56c0.37,0,0.67,0.3,0.67,0.67
			S34,66.92,33.63,66.92z"/>
	</g>
	<g>
		<path class="st0" d="M63.03,66.92c-0.37,0-0.67-0.3-0.67-0.67s0.3-0.67,0.67-0.67c2.51,0,4.56-2.04,4.56-4.56v-29.4
			c0-2.51-2.04-4.56-4.56-4.56c-0.37,0-0.67-0.3-0.67-0.67c0-0.37,0.3-0.67,0.67-0.67c3.25,0,5.9,2.65,5.9,5.9v29.4
			C68.93,64.28,66.29,66.92,63.03,66.92z"/>
	</g>
	<g>
		<path class="st0" d="M66.07,27.07c-0.02,0-0.04,0-0.05,0c-0.37-0.03-0.65-0.35-0.62-0.72l0.47-6.04H30.79l0.47,6.04
			c0.03,0.37-0.25,0.69-0.62,0.72c-0.36,0.02-0.69-0.25-0.72-0.62l-0.53-6.77c-0.01-0.19,0.05-0.37,0.18-0.51
			c0.13-0.14,0.31-0.22,0.49-0.22H66.6c0.19,0,0.37,0.08,0.49,0.22c0.13,0.14,0.19,0.32,0.18,0.51l-0.53,6.77
			C66.71,26.81,66.41,27.07,66.07,27.07z"/>
	</g>
	<g>
		<path class="st0" d="M66.6,73.68H30.07c-0.19,0-0.37-0.08-0.49-0.22c-0.13-0.14-0.19-0.32-0.18-0.51l0.53-6.76
			c0.03-0.37,0.36-0.64,0.72-0.62c0.37,0.03,0.65,0.35,0.62,0.72l-0.47,6.04h35.08l-0.47-6.04c-0.03-0.37,0.25-0.69,0.62-0.72
			c0.37-0.02,0.69,0.25,0.72,0.62l0.53,6.76c0.01,0.19-0.05,0.37-0.18,0.51C66.96,73.6,66.78,73.68,66.6,73.68z"/>
	</g>
	<g>
		<g>
			<path class="st0" d="M37.28,27.06H35.6c-0.37,0-0.67-0.3-0.67-0.67c0-0.37,0.3-0.67,0.67-0.67h1.68c0.37,0,0.67,0.3,0.67,0.67
				C37.95,26.76,37.65,27.06,37.28,27.06z"/>
		</g>
		<g>
			<path class="st0" d="M56.23,27.06h-3.16c-0.37,0-0.67-0.3-0.67-0.67c0-0.37,0.3-0.67,0.67-0.67h3.16c0.37,0,0.67,0.3,0.67,0.67
				C56.9,26.76,56.6,27.06,56.23,27.06z M49.91,27.06h-3.16c-0.37,0-0.67-0.3-0.67-0.67c0-0.37,0.3-0.67,0.67-0.67h3.16
				c0.37,0,0.67,0.3,0.67,0.67C50.58,26.76,50.28,27.06,49.91,27.06z M43.59,27.06h-3.16c-0.37,0-0.67-0.3-0.67-0.67
				c0-0.37,0.3-0.67,0.67-0.67h3.16c0.37,0,0.67,0.3,0.67,0.67C44.27,26.76,43.97,27.06,43.59,27.06z"/>
		</g>
		<g>
			<path class="st0" d="M61.07,27.06h-1.68c-0.37,0-0.67-0.3-0.67-0.67c0-0.37,0.3-0.67,0.67-0.67h1.68c0.37,0,0.67,0.3,0.67,0.67
				C61.74,26.76,61.44,27.06,61.07,27.06z"/>
		</g>
	</g>
	<g>
		<g>
			<path class="st0" d="M37.28,66.91H35.6c-0.37,0-0.67-0.3-0.67-0.67c0-0.37,0.3-0.67,0.67-0.67h1.68c0.37,0,0.67,0.3,0.67,0.67
				C37.95,66.61,37.65,66.91,37.28,66.91z"/>
		</g>
		<g>
			<path class="st0" d="M56.23,66.91h-3.16c-0.37,0-0.67-0.3-0.67-0.67c0-0.37,0.3-0.67,0.67-0.67h3.16c0.37,0,0.67,0.3,0.67,0.67
				C56.9,66.61,56.6,66.91,56.23,66.91z M49.91,66.91h-3.16c-0.37,0-0.67-0.3-0.67-0.67c0-0.37,0.3-0.67,0.67-0.67h3.16
				c0.37,0,0.67,0.3,0.67,0.67C50.58,66.61,50.28,66.91,49.91,66.91z M43.59,66.91h-3.16c-0.37,0-0.67-0.3-0.67-0.67
				c0-0.37,0.3-0.67,0.67-0.67h3.16c0.37,0,0.67,0.3,0.67,0.67C44.27,66.61,43.97,66.91,43.59,66.91z"/>
		</g>
		<g>
			<path class="st0" d="M61.07,66.91h-1.68c-0.37,0-0.67-0.3-0.67-0.67c0-0.37,0.3-0.67,0.67-0.67h1.68c0.37,0,0.67,0.3,0.67,0.67
				C61.74,66.61,61.44,66.91,61.07,66.91z"/>
		</g>
	</g>
</g>
</svg>
