<?xml version="1.0" encoding="utf-8"?>
<!-- Generator: Adobe Illustrator 26.2.1, SVG Export Plug-In . SVG Version: 6.00 Build 0)  -->
<svg version="1.1" id="レイヤー_1" xmlns="http://www.w3.org/2000/svg" xmlns:xlink="http://www.w3.org/1999/xlink" x="0px"
	 y="0px" viewBox="0 0 95 95" style="enable-background:new 0 0 95 95;" xml:space="preserve">
<style type="text/css">
	.st0{fill:#FFFFFF;}
</style>
<g>
	<path class="st0" d="M60.17,48.09c0-1.82-1.22-3.66-3.95-3.66c-1.66,0-3.14,1.4-4.42,2.78h-8.43c-1.36-1.47-2.9-2.78-4.9-2.78
		c-2.09,0-3.66,1.55-3.66,3.61c0,1.5,0.64,2.33,1.28,2.8c-0.69,0.5-1.28,1.33-1.28,2.79c0,1.82,1.22,3.66,3.95,3.66
		c1.66,0,3.14-1.4,4.42-2.78h8.43c1.36,1.47,2.9,2.78,4.9,2.78c2.09,0,3.66-1.55,3.66-3.6c0-1.5-0.64-2.33-1.28-2.8
		C59.59,50.38,60.17,49.55,60.17,48.09z M57.4,50.32c-0.24,0.09-0.39,0.32-0.39,0.57c0.01,0.25,0.17,0.48,0.41,0.55l0.05,0.02
		c0.78,0.31,1.5,0.79,1.5,2.22c0,1.4-1.04,2.41-2.47,2.41c-1.62,0-2.97-1.24-4.2-2.59c-0.11-0.12-0.27-0.19-0.44-0.19h-8.95
		c-0.17,0-0.33,0.07-0.44,0.19c-1.41,1.55-2.58,2.59-3.71,2.59c-2.03,0-2.76-1.28-2.76-2.47c0-1.36,0.6-1.86,1.58-2.23
		c0.24-0.09,0.39-0.32,0.39-0.57c-0.01-0.25-0.17-0.48-0.41-0.55l-0.05-0.02c-0.78-0.31-1.5-0.79-1.5-2.22
		c0-1.4,1.04-2.41,2.47-2.41c1.62,0,2.97,1.24,4.2,2.59c0.11,0.12,0.27,0.2,0.44,0.2h8.95c0.17,0,0.33-0.07,0.44-0.2
		c1.41-1.55,2.58-2.59,3.71-2.59c2.03,0,2.76,1.28,2.76,2.47C58.98,49.45,58.38,49.95,57.4,50.32z"/>
	<path class="st0" d="M73.79,60.32l-4.86-20.36c-0.29-0.86-1.07-1.44-1.92-1.44h-0.74c0.14-0.45,0.22-0.92,0.22-1.39
		c0-2.41-1.79-4.36-4-4.36c-0.81,0-1.58,0.26-2.25,0.76c-1.19-0.88-2.86-0.98-4.13-0.24c-0.68-1.46-2.03-2.36-3.55-2.36
		c-1.38,0-2.67,0.79-3.4,2.07c-0.76-0.9-1.82-1.41-2.95-1.41c-1.22,0-2.38,0.61-3.13,1.65c-0.72-0.66-1.63-1.03-2.58-1.03
		c-0.43,0-0.86,0.08-1.27,0.23c-0.73-1.29-1.99-2.06-3.4-2.06c-2.15,0-3.92,1.87-4,4.2c-0.04,0-0.08,0-0.12,0
		c-2.08,0-3.77,1.74-3.96,3.96h-0.54c-0.9,0-1.67,0.62-1.96,1.58L21.2,60.32c-0.21,0.7-0.08,1.47,0.34,2.05
		c0.39,0.53,0.97,0.83,1.6,0.83h48.71c0.64,0,1.23-0.31,1.62-0.86C73.9,61.75,74.02,60.97,73.79,60.32z M33.27,34.72
		c0-1.61,1.15-2.92,2.56-2.92c1.04,0,1.98,0.72,2.37,1.83c0.07,0.21,0.24,0.37,0.44,0.44c0.21,0.07,0.43,0.05,0.62-0.07
		c0.38-0.24,0.8-0.36,1.23-0.36c0.83,0,1.61,0.46,2.09,1.24c0.15,0.24,0.4,0.37,0.68,0.34c0.27-0.02,0.5-0.2,0.6-0.46
		c0.41-1.06,1.33-1.74,2.34-1.74c1.08,0,2.06,0.79,2.41,1.96c0.09,0.3,0.38,0.51,0.69,0.51c0.02,0,0.04,0,0.06,0
		c0.34-0.03,0.61-0.29,0.65-0.63c0.18-1.42,1.27-2.5,2.53-2.5c1.19,0,2.22,0.93,2.49,2.25c0.05,0.26,0.25,0.47,0.5,0.55
		c0.26,0.07,0.53,0,0.72-0.19c0.48-0.49,1.09-0.77,1.72-0.77c0.64,0,1.25,0.27,1.73,0.77c0.13,0.14,0.32,0.22,0.52,0.22c0,0,0,0,0,0
		c0.2,0,0.39-0.08,0.52-0.22c0.47-0.5,1.09-0.77,1.73-0.77c1.41,0,2.56,1.31,2.56,2.92c0,0.49-0.13,0.96-0.34,1.39H29.19
		c0.17-1.42,1.23-2.52,2.52-2.52c0.22,0,0.45,0.04,0.68,0.11c0.24,0.08,0.5,0.02,0.69-0.15c0.19-0.17,0.28-0.42,0.23-0.67
		C33.29,35.1,33.27,34.91,33.27,34.72z M72.3,61.5c-0.07,0.09-0.21,0.25-0.45,0.25H23.14c-0.22,0-0.36-0.13-0.44-0.24
		c-0.16-0.22-0.2-0.51-0.1-0.84l4.05-20.23c0.09-0.29,0.32-0.49,0.57-0.49h39.81c0.23,0,0.46,0.18,0.54,0.4l4.86,20.36
		C72.5,60.99,72.46,61.28,72.3,61.5z"/>
</g>
</svg>
