<?xml version="1.0" encoding="utf-8"?>
<!-- Generator: Adobe Illustrator 26.2.1, SVG Export Plug-In . SVG Version: 6.00 Build 0)  -->
<svg version="1.1" id="レイヤー_1" xmlns="http://www.w3.org/2000/svg" xmlns:xlink="http://www.w3.org/1999/xlink" x="0px"
	 y="0px" viewBox="0 0 95 95" style="enable-background:new 0 0 95 95;" xml:space="preserve">
<style type="text/css">
	.st0{fill:#FFFFFF;}
</style>
<g>
	<g>
		<path class="st0" d="M47.5,54.51c-3.41,0-6.72-0.42-9.83-1.24c-0.38-0.1-0.6-0.49-0.5-0.86c0.1-0.38,0.49-0.6,0.87-0.5
			c2.99,0.79,6.17,1.19,9.46,1.19c12.87,0,23.35-6.19,23.35-13.8c0-7.61-10.47-13.8-23.35-13.8s-23.35,6.19-23.35,13.8
			c0,3.86,2.79,7.58,7.67,10.2c0.34,0.19,0.47,0.62,0.29,0.96c-0.19,0.34-0.61,0.47-0.96,0.29c-5.34-2.88-8.41-7.05-8.41-11.45
			c0-8.39,11.11-15.21,24.76-15.21c13.65,0,24.76,6.82,24.76,15.21S61.15,54.51,47.5,54.51z"/>
	</g>
	<g>
		<path class="st0" d="M70.15,44.91c-0.24,0-0.48-0.12-0.61-0.35c-3.3-5.54-12.15-9.26-22.04-9.26c-9.88,0-18.74,3.72-22.04,9.25
			c-0.2,0.34-0.63,0.45-0.97,0.25c-0.34-0.2-0.45-0.63-0.25-0.97c3.54-5.95,12.89-9.94,23.25-9.94c10.37,0,19.71,4,23.25,9.95
			c0.2,0.34,0.09,0.77-0.25,0.97C70.39,44.88,70.27,44.91,70.15,44.91z"/>
	</g>
	<g>
		<path class="st0" d="M47.5,66.35c-4.12,0-8.2-0.63-11.79-1.82c-0.37-0.12-0.57-0.52-0.45-0.89c0.12-0.37,0.52-0.57,0.89-0.45
			c3.45,1.14,7.38,1.75,11.35,1.75c12.87,0,23.35-6.19,23.35-13.8V39.3c0-0.39,0.32-0.71,0.71-0.71c0.39,0,0.71,0.32,0.71,0.71
			v11.84C72.26,59.52,61.15,66.35,47.5,66.35z"/>
	</g>
	<g>
		<path class="st0" d="M29.69,61.59c-0.13,0-0.27-0.04-0.39-0.12c-4.23-2.81-6.56-6.48-6.56-10.34V39.3c0-0.39,0.32-0.71,0.71-0.71
			c0.39,0,0.71,0.32,0.71,0.71v11.84c0,3.37,2.1,6.62,5.92,9.16c0.33,0.22,0.41,0.66,0.2,0.98C30.14,61.48,29.91,61.59,29.69,61.59z
			"/>
	</g>
	<path class="st0" d="M48.55,59.99c0,0.92-0.74,1.66-1.66,1.66c-0.92,0-1.66-0.74-1.66-1.66s0.74-1.66,1.66-1.66
		C47.81,58.33,48.55,59.07,48.55,59.99z"/>
	<path class="st0" d="M58.54,58.75c0,0.92-0.74,1.66-1.66,1.66s-1.66-0.74-1.66-1.66s0.74-1.66,1.66-1.66S58.54,57.84,58.54,58.75z"
		/>
	<path class="st0" d="M67.29,54.77c0,0.92-0.74,1.66-1.66,1.66c-0.92,0-1.66-0.74-1.66-1.66c0-0.92,0.74-1.66,1.66-1.66
		C66.55,53.11,67.29,53.86,67.29,54.77z"/>
	<g>
		<path class="st0" d="M40.88,70.91H37.3c-4.32,0-7.83-3.51-7.83-7.83v-7.88c0-4.32,3.51-7.83,7.83-7.83h3.58
			c3.51,0,6.61,2.37,7.55,5.76c0.1,0.38-0.12,0.77-0.49,0.87c-0.38,0.1-0.77-0.12-0.87-0.49c-0.77-2.78-3.31-4.72-6.18-4.72H37.3
			c-3.54,0-6.41,2.88-6.41,6.41v7.88c0,3.54,2.88,6.41,6.41,6.41h3.58c2.58,0,4.91-1.55,5.91-3.94c0.15-0.36,0.57-0.53,0.93-0.38
			c0.36,0.15,0.53,0.57,0.38,0.93C46.87,69.03,44.03,70.91,40.88,70.91z"/>
	</g>
	<g>
		<path class="st0" d="M39.93,66.56h-1.68c-2.19,0-3.98-1.78-3.98-3.98v-6.88c0-2.19,1.78-3.98,3.98-3.98h1.68
			c0.39,0,0.71,0.32,0.71,0.71s-0.32,0.71-0.71,0.71h-1.68c-1.41,0-2.56,1.15-2.56,2.56v6.88c0,1.41,1.15,2.56,2.56,2.56h1.68
			c0.39,0,0.71,0.32,0.71,0.71C40.63,66.24,40.32,66.56,39.93,66.56z"/>
	</g>
	<path class="st0" d="M34.98,57.48c0,0,7.08,2.16,11.92,1.66v1.66c0,0-6.44,0.22-11.92-1.66V57.48z"/>
</g>
</svg>
