<?xml version="1.0" encoding="utf-8"?>
<!-- Generator: Adobe Illustrator 26.2.1, SVG Export Plug-In . SVG Version: 6.00 Build 0)  -->
<svg version="1.1" id="レイヤー_1" xmlns="http://www.w3.org/2000/svg" xmlns:xlink="http://www.w3.org/1999/xlink" x="0px"
	 y="0px" viewBox="0 0 95 95" style="enable-background:new 0 0 95 95;" xml:space="preserve">
<style type="text/css">
	.st0{fill:#FFFFFF;}
</style>
<g>
	<g>
		<path class="st0" d="M68.72,72.43H26.28c-0.38,0-0.69-0.31-0.69-0.69V45.53c0-0.38,0.31-0.69,0.69-0.69
			c0.38,0,0.69,0.31,0.69,0.69v25.51h41.06V44.69c0-0.38,0.31-0.69,0.69-0.69c0.38,0,0.69,0.31,0.69,0.69v27.05
			C69.42,72.12,69.11,72.43,68.72,72.43z"/>
	</g>
	<g>
		<path class="st0" d="M58.11,72.43H36.89c-0.38,0-0.69-0.31-0.69-0.69V56.16c0-0.38,0.31-0.69,0.69-0.69h21.22
			c0.38,0,0.69,0.31,0.69,0.69v15.57C58.81,72.12,58.5,72.43,58.11,72.43z M37.58,71.04h19.84V56.86H37.58V71.04z"/>
	</g>
	<g>
		<path class="st0" d="M31.58,51.67c-3.31,0-6-2.69-6-6V33.11c0-0.38,0.31-0.69,0.69-0.69c0.38,0,0.69,0.31,0.69,0.69v12.56
			c0,2.54,2.07,4.61,4.61,4.61c2.54,0,4.61-2.07,4.61-4.61V33.11c0-0.38,0.31-0.69,0.69-0.69c0.38,0,0.69,0.31,0.69,0.69v12.56
			C37.58,48.98,34.89,51.67,31.58,51.67z"/>
	</g>
	<g>
		<path class="st0" d="M42.19,51.67c-3.31,0-6-2.69-6-6V33.11c0-0.38,0.31-0.69,0.69-0.69c0.38,0,0.69,0.31,0.69,0.69v12.56
			c0,2.54,2.07,4.61,4.61,4.61c2.54,0,4.61-2.07,4.61-4.61V33.11c0-0.38,0.31-0.69,0.69-0.69c0.38,0,0.69,0.31,0.69,0.69v12.56
			C48.19,48.98,45.5,51.67,42.19,51.67z"/>
	</g>
	<g>
		<path class="st0" d="M52.81,51.67c-3.31,0-6-2.69-6-6V33.11c0-0.38,0.31-0.69,0.69-0.69c0.38,0,0.69,0.31,0.69,0.69v12.56
			c0,2.54,2.07,4.61,4.61,4.61c2.54,0,4.61-2.07,4.61-4.61V33.11c0-0.38,0.31-0.69,0.69-0.69c0.38,0,0.69,0.31,0.69,0.69v12.56
			C58.81,48.98,56.11,51.67,52.81,51.67z"/>
	</g>
	<g>
		<path class="st0" d="M63.42,51.67c-3.31,0-6-2.69-6-6V33.11c0-0.38,0.31-0.69,0.69-0.69c0.38,0,0.69,0.31,0.69,0.69v12.56
			c0,2.54,2.07,4.61,4.61,4.61c2.54,0,4.61-2.07,4.61-4.61V33.11c0-0.38,0.31-0.69,0.69-0.69c0.38,0,0.69,0.31,0.69,0.69v12.56
			C69.42,48.98,66.73,51.67,63.42,51.67z"/>
	</g>
	<g>
		<path class="st0" d="M68.72,33.8H26.28c-0.38,0-0.69-0.31-0.69-0.69c0-0.38,0.31-0.69,0.69-0.69h42.45c0.38,0,0.69,0.31,0.69,0.69
			C69.42,33.49,69.11,33.8,68.72,33.8z"/>
	</g>
	<g>
		<path class="st0" d="M59.07,32.68c-2.14,0-3.8-1.4-5.26-2.98H41c-1.36,1.48-2.95,2.98-4.74,2.98c-2.95,0-4.27-2-4.27-3.97
			c0-1.54,0.6-2.43,1.33-2.98c-0.67-0.52-1.33-1.41-1.33-2.99c0-2.23,1.71-3.91,3.97-3.91c2.14,0,3.8,1.4,5.26,2.97h12.81
			c1.36-1.48,2.95-2.97,4.74-2.97c2.95,0,4.27,2,4.27,3.97c0,1.54-0.6,2.43-1.33,2.98c0.67,0.52,1.33,1.41,1.33,2.99
			C63.04,31,61.33,32.68,59.07,32.68z M40.7,28.31h13.42c0.2,0,0.38,0.08,0.51,0.23c1.3,1.43,2.73,2.75,4.44,2.75
			c1.5,0,2.59-1.06,2.59-2.52c0-1.41-0.63-1.94-1.57-2.32l-0.05-0.02c-0.28-0.09-0.47-0.35-0.48-0.64c-0.01-0.3,0.17-0.56,0.45-0.67
			c1.02-0.38,1.65-0.9,1.65-2.33c0-1.25-0.76-2.59-2.89-2.59c-1.18,0-2.43,1.1-3.93,2.75c-0.13,0.14-0.32,0.23-0.51,0.23H40.91
			c-0.2,0-0.38-0.08-0.51-0.23c-1.3-1.43-2.73-2.75-4.44-2.75c-1.5,0-2.58,1.06-2.58,2.52c0,1.41,0.63,1.94,1.57,2.32l0.05,0.02
			c0.28,0.09,0.47,0.35,0.48,0.64c0.01,0.3-0.17,0.56-0.45,0.67c-1.02,0.38-1.65,0.9-1.65,2.33c0,1.25,0.76,2.59,2.89,2.59
			c1.18,0,2.43-1.1,3.92-2.75C40.32,28.4,40.5,28.31,40.7,28.31z"/>
	</g>
</g>
</svg>
