<?xml version="1.0" encoding="UTF-8"?>
<svg id="_레이어_2" data-name="레이어 2" xmlns="http://www.w3.org/2000/svg" viewBox="0 0 143.52 143.05">
  <defs>
    <style>
      .cls-1 {
        fill: #ebedf2;
      }
    </style>
  </defs>
  <g id="_레이어_1-2" data-name="레이어 1">
    <g>
      <path class="cls-1" d="m17.09,97.2c7.63-1.84,10.53-6.59,8.69-14.24l-2.08-8.59c-.48-1.9-1.67-2.63-3.56-2.17l-17.17,4.15c-1.93.47-2.65,1.65-2.17,3.56l2.15,8.9c1.81,7.43,6.53,10.24,14.14,8.41Zm-8.46-10.07l-1.39-5.74,11.42-2.76,1.38,5.73c.9,3.81-.53,6.17-4.3,7.06-3.85.95-6.22-.48-7.11-4.28Z"/>
      <path class="cls-1" d="m36.13,102.91l-5.82-6.66c-1.31-1.47-2.69-1.56-4.16-.28l-13.3,11.63c-1.49,1.31-1.59,2.69-.28,4.16l6.02,6.89c5.05,5.75,10.53,6.05,16.43.91,5.91-5.17,6.28-10.71,1.11-16.64Zm-4.98,12.15c-2.98,2.63-5.74,2.46-8.29-.5l-3.89-4.45,8.84-7.73,3.88,4.44c2.56,2.96,2.38,5.71-.54,8.25Z"/>
      <path class="cls-1" d="m56.4,118.16c-.07-.53-.28-1-.62-1.41-.34-.41-.75-.71-1.22-.9-.48-.19-.98-.24-1.51-.17-.53.07-1.01.28-1.41.62-.41.34-3.05,2.73-7.94,7.16s-7.42,6.88-7.61,7.36c-.19.49-.25.99-.17,1.53.08.54.29,1.01.63,1.41.34.4.75.7,1.21.88l16.46,6.43c.46.18.95.24,1.48.18.53-.06,1.01-.26,1.42-.61.42-.34.72-.76.91-1.24.19-.48-.02-4-.62-10.57-.6-6.57-.94-10.12-1.01-10.65Zm-12.05,12.67l6.79-6.25.74,9.2-7.54-2.94Z"/>
      <path class="cls-1" d="m85.86,135.8l-5.87-5.41,4.89-6.33c.96-1,1.4-2.01,1.32-3.05-.05-.99-.35-1.71-.91-2.17-.55-.45-1.31-.64-2.27-.56-.98.08-1.7.38-2.15.9-.46.52-1.56,2.04-3.32,4.55-1.76,2.51-2.86,4.11-3.31,4.77-.45.67-.65,1.48-.58,2.43.11,1.03.44,1.81.98,2.35.54.54,1.86,1.89,3.97,4.04,2.1,2.15,3.43,3.46,3.97,3.93.55.47,1.32.66,2.33.57.95-.06,1.67-.36,2.17-.89.49-.54.68-1.3.55-2.28.01-.97-.58-1.92-1.77-2.86Z"/>
      <path class="cls-1" d="m71.53,122.23c-.16-1.96-1.22-2.86-3.19-2.71-1.96.18-2.85,1.25-2.69,3.21l1.44,17.62c.15,1.94,1.2,2.83,3.16,2.68,1.96-.18,2.86-1.24,2.71-3.18l-1.42-17.62Z"/>
      <path class="cls-1" d="m103.06,110.98c-2.02-.53-3.86-.33-5.51.6l-9.01,5.08c-1.69.98-2.07,2.31-1.13,3.99l8.71,15.44c.95,1.71,2.29,2.07,4,1.09,1.73-.97,2.11-2.32,1.13-4.02l-7.23-12.81,3.8-2.14,1.86-1.05c1.34-.76,2.26-.71,2.73.13.49.84.06,1.63-1.3,2.37l-1.82,1.04c-1.73.97-2.11,2.31-1.14,4.04.99,1.73,2.33,2.12,4.02,1.15l2.51-1.45c1.76-.99,2.92-2.47,3.49-4.45.57-1.98.36-3.86-.64-5.63-.97-1.73-2.46-2.86-4.48-3.4Z"/>
      <path class="cls-1" d="m132.79,103.39c-1.6-1.16-2.98-.94-4.16.66l-6.89,9.48-9.5-6.91,6.91-9.5c1.14-1.62.9-3.02-.72-4.2-1.52-1.1-2.84-.91-3.94.56l-8.79,12.04c-1.12,1.6-.89,2.98.68,4.13l14.36,10.44c1.55,1.11,2.9.88,4.04-.7l8.66-11.92c1.12-1.58.9-2.94-.66-4.08Z"/>
      <path class="cls-1" d="m117.88,108.97c1.59,1.14,2.95.92,4.08-.66l3.48-4.79c1.14-1.57.93-2.95-.63-4.14-1.6-1.12-2.99-.9-4.16.68l-3.48,4.79c-1.11,1.58-.87,2.95.7,4.12Z"/>
      <path class="cls-1" d="m138.96,82.28l-14.44-2.87.86-4.32c.36-1.95-.44-3.12-2.41-3.52-1.84-.36-2.96.36-3.35,2.16l-2.95,14.62c-.35,1.92.44,3.08,2.34,3.47,1.94.39,3.1-.38,3.48-2.31l.87-4.33,14.5,2.91c1.87.37,3-.4,3.38-2.33.36-1.92-.4-3.08-2.3-3.48Z"/>
      <path class="cls-1" d="m71.76,0C33.05,0,1.4,30.79,0,69.17c-.05,1.35,1.22,2.37,2.53,2.09l20.26-4.3c1.01-.21,1.75-1.04,1.9-2.06,3.36-22.97,23.18-40.66,47.07-40.66s43.71,17.7,47.07,40.66c.15,1.02.89,1.85,1.9,2.06l20.26,4.3c1.32.28,2.58-.75,2.53-2.09C142.13,30.79,110.47,0,71.76,0Z"/>
      <path class="cls-1" d="m67.32,109.63c.12,1.57,1.4,2.79,2.98,2.85.49.02.98.03,1.47.03,22.48,0,40.7-18.22,40.7-40.7s-19.42-41.87-42.89-40.64c-21.33,1.12-38.45,19.18-38.51,40.54-.03,11.63,4.82,22.13,12.62,29.56,1.19,1.13,3.05,1.15,4.25.02,4.09-3.84,12.87-11.86,13.2-12.13.41-.34.88-.55,1.41-.62.53-.07,1.04-.01,1.51.17.47.19.88.49,1.22.9.34.41.55.88.62,1.41.06.41,1,13,1.42,18.6Z"/>
    </g>
  </g>
</svg>