<?xml version="1.0" encoding="UTF-8"?>
<svg id="_레이어_2" data-name="레이어 2" xmlns="http://www.w3.org/2000/svg" viewBox="0 0 128.02 138.43">
  <defs>
    <style>
      .cls-1 {
        fill: #ebedf2;
      }
    </style>
  </defs>
  <g id="_레이어_1-2" data-name="레이어 1">
    <g>
      <rect class="cls-1" x="93.39" y="96.9" width="1.2" height="2.76"/>
      <path class="cls-1" d="m77.88,62.25c3.67,0,6.65-2.98,6.65-6.65s-2.97-6.65-6.65-6.65-6.65,2.98-6.65,6.65,2.97,6.65,6.65,6.65Z"/>
      <path class="cls-1" d="m49.29,62.25c3.67,0,6.65-2.98,6.65-6.65s-2.97-6.65-6.65-6.65-6.65,2.98-6.65,6.65,2.98,6.65,6.65,6.65Z"/>
      <rect class="cls-1" x="82.63" y="96.91" width="1.67" height="2.61"/>
      <path class="cls-1" d="m29.71,90.2c0-3.65-2.96-6.61-6.61-6.61s-6.61,2.96-6.61,6.61,2.96,6.61,6.61,6.61,6.61-2.96,6.61-6.61Z"/>
      <path class="cls-1" d="m128.02,51.02c0-17.68-14.33-32-32.01-32-.91,0-1.81.05-2.7.12C88.36,7.87,77.11,0,64.01,0s-24.35,7.87-29.31,19.14c-.89-.07-1.79-.12-2.7-.12C14.33,19.02,0,33.35,0,51.02c0,6.9,2.19,13.28,5.9,18.51-3.71,5.23-5.9,11.61-5.9,18.51,0,9.09,3.8,17.29,9.88,23.11v-20.96c0-4.89,2.66-9.16,6.61-11.45,1.94-1.13,4.2-1.77,6.61-1.77,7.3,0,13.22,5.92,13.22,13.22s-5.92,13.22-13.22,13.22c-2.41,0-4.66-.65-6.61-1.77v8.38c0,2.29-.91,3.78-2.05,4.76,5.04,3.32,11.08,5.25,17.56,5.25,1,0,2-.05,2.98-.14,5.09,10.94,16.17,18.52,29.03,18.52s23.94-7.59,29.03-18.52c.98.09,1.97.14,2.98.14,17.68,0,32.01-14.33,32.01-32.01,0-6.9-2.19-13.28-5.9-18.51,3.71-5.23,5.9-11.61,5.9-18.51Zm-93.99,4.58c0,4.92-2.68,9.21-6.65,11.51-1.96,1.13-4.22,1.78-6.65,1.78-7.34,0-13.29-5.95-13.29-13.29s5.95-13.29,13.29-13.29c2.42,0,4.69.65,6.65,1.78v-8.43c0-6.2,6.65-6.65,6.65-6.65v26.58Zm77.5-24.67h1.28l1.27,4.27,1.25-4.27h1.29v5.45h-.82v-4.31l-1.32,4.31h-.79l-1.33-4.31v4.31h-.82v-5.45Zm-4.58,0h4v.78h-1.56v4.66h-.87v-4.66h-1.57v-.78Zm-29.07,11.37c2.77,0,5.34.85,7.47,2.3,3.51,2.39,5.82,6.42,5.82,10.99v13.29c-4.45,0-6.65-1.78-6.65-1.78h0c-1.95,1.13-4.22,1.78-6.65,1.78-7.34,0-13.29-5.95-13.29-13.29s5.95-13.29,13.29-13.29Zm-41.88,13.29c0-7.34,5.95-13.29,13.29-13.29,2.42,0,4.69.65,6.65,1.78v-8.43c0-6.2,6.65-6.65,6.65-6.65v26.58c0,4.92-2.67,9.21-6.65,11.51-1.96,1.13-4.22,1.78-6.65,1.78-7.34,0-13.29-5.95-13.29-13.29Zm41.95,56.23c-2.17,2.34-6.61,2.37-6.61,2.37v-20.41c-.9.16-1.8.3-2.71.39-1.27.13-2.55.2-3.82.2-4.28,0-8.4-.72-12.24-2.14-2.76-1.02-5.27-2.39-7.48-4.04-.06.18-.12.36-.17.55-.11.47-.17.95-.17,1.45,0,3.64,2.95,6.59,6.59,6.59,2.23,0,4.19-1.11,5.39-2.8,2.27.51,4.62.79,6.99.85-1.88,5.01-6.71,8.58-12.38,8.58-7.3,0-13.22-5.92-13.22-13.22,0-2.33.61-4.52,1.67-6.43.32-.57.68-1.12,1.08-1.64,2.42-3.13,6.21-5.15,10.47-5.15,6.65,0,12.15,4.91,13.08,11.3-2.35.09-4.65.03-6.84-.17-.88-2.61-3.34-4.49-6.24-4.49-1.81,0-3.45.73-4.64,1.91-.13.13-.25.28-.37.42,4.3,1.9,9.84,2.94,15.97,2.94,3.08,0,6.11-.26,9.02-.73v-13.6c7.37,0,6.61,6.61,6.61,6.61v5.49c6.55-1.96,11.98-5.09,15.03-8.97.19-.24.42-.37.63-.37.08,0,.16.02.24.06.32.16.44.54.28.86-2.16,4.25-5.68,7.99-10.19,10.81-1.87,1.17-3.89,2.15-6,2.95v19.86Zm3.61-15.96h2.74v.41h2.51v1.04h-1.43v2.18h2.15v1.02h-5.97v-4.66Zm7.96,9.35h-1.15v-2.5h-3.81v-.96h4.96v3.46Zm1.61-6.62h-1.61v2.37h-1.14v-5.84h1.14v2.34h1.61v1.12Zm.41,2.07v-1.03h.78v-2.76h-.78v-1.02h4.87v1.02h-.78v2.76h.78v1.03h-4.87Zm4.85-1.88v-1.09h1.1v-2h1.09v5.31h-1.09v-2.22h-1.1Zm3.57,5.98c-.12.1-.26.21-.41.35l-2.31-2.06-2.3,2.05-.85-.71c.56-.49,1.09-.95,1.58-1.39.49-.43,1.01-.9,1.57-1.39l3.15,2.77c-.17.13-.31.27-.43.38Zm.72-3.01h-1.09v-6.62h1.09v6.62Zm9.05-33.02l-5.77-8.28-3.97,4.82v3.69h-6.66V29.11c5.7,0,6.56,3.93,6.66,5.74v20.03l2.75-3.41v-.03l5.7-7.11c1.19-1.13,2.61-1.78,4.24-1.94,1.64-.16,3.26-.19,4.87-.07l-9.11,12.72,10.23,13.71h-8.93Z"/>
      <path class="cls-1" d="m20.73,48.96c-3.67,0-6.64,2.98-6.64,6.65s2.97,6.65,6.64,6.65,6.65-2.98,6.65-6.65-2.98-6.65-6.65-6.65Z"/>
    </g>
  </g>
</svg>