<?xml version="1.0" encoding="UTF-8"?>
<svg id="_레이어_2" data-name="레이어 2" xmlns="http://www.w3.org/2000/svg" viewBox="0 0 150 141.99">
  <defs>
    <style>
      .cls-1 {
        fill: #ebedf2;
      }
    </style>
  </defs>
  <g id="_레이어_1-2" data-name="레이어 1">
    <g>
      <rect class="cls-1" width="36.5" height="36.5"/>
      <rect class="cls-1" x="73" width="36.5" height="36.5"/>
      <rect class="cls-1" x="36.5" y="36.5" width="36.5" height="36.5"/>
      <polygon class="cls-1" points="77.57 77.57 36.5 77.57 36.5 113.84 150 113.84 150 0 114.06 0 114.06 41.07 77.57 41.07 77.57 77.57"/>
      <rect class="cls-1" x="42.81" y="123.85" width="4.19" height="15.77"/>
      <polygon class="cls-1" points="36.5 122.98 40.91 122.98 40.91 122.98 49.31 122.98 49.31 122.98 53.3 122.98 53.3 118.81 36.5 118.81 36.5 122.98"/>
      <rect class="cls-1" x="60.61" y="127.14" width="6.03" height="4.16"/>
      <polygon class="cls-1" points="55.53 139.62 69.93 139.62 69.93 135.46 59.73 135.46 59.73 122.98 69.93 122.98 69.93 118.81 55.53 118.81 55.53 139.62"/>
      <rect class="cls-1" x="77.7" y="131.31" width="6.66" height="4.15"/>
      <path class="cls-1" d="m86.98,121.25c-.76-.75-1.65-1.35-2.67-1.79-1.02-.44-2.11-.65-3.27-.65s-2.25.22-3.27.65c-1.02.44-1.91,1.03-2.67,1.79-.76.75-1.35,1.64-1.79,2.65-.44,1.01-.66,2.09-.66,3.24v12.48h4.19v-12.48c0-.57.11-1.11.33-1.62.22-.51.52-.95.9-1.33.38-.38.83-.67,1.34-.89.51-.22,1.06-.33,1.63-.33s1.12.11,1.63.33c.51.22.96.52,1.34.89.38.38.68.82.9,1.33.22.51.33,1.05.33,1.62v12.48h4.2v-12.48c0-1.15-.22-2.23-.66-3.24-.44-1.01-1.04-1.89-1.8-2.65Z"/>
      <rect class="cls-1" x="109.74" y="127.58" width="4.19" height="12.04"/>
      <path class="cls-1" d="m112.1,120.34c-.57-.57-1.24-1.01-2.01-1.34-.77-.32-1.58-.49-2.45-.49-.78,0-1.53.14-2.25.41-.72.28-1.36.67-1.94,1.2-.58-.52-1.23-.92-1.95-1.2-.72-.28-1.47-.41-2.26-.41-.87,0-1.69.16-2.45.49-.77.32-1.44.77-2.01,1.34-.57.57-1.02,1.23-1.35,1.99-.33.76-.49,1.57-.49,2.43v14.86h4.2v-14.86c0-.29.05-.56.16-.81.11-.25.26-.47.45-.66.19-.19.41-.34.67-.44.25-.11.53-.16.82-.16s.57.05.82.16c.25.11.48.25.67.44.19.19.34.41.45.66.11.25.16.52.16.81v14.86h4.2v-14.86c0-.29.05-.56.16-.81.11-.25.26-.47.45-.66.19-.19.41-.34.67-.44.25-.11.53-.16.82-.16s.57.05.82.16c.25.11.48.25.67.44.19.19.34.41.45.66.11.25.17.52.17.81v1.94h4.19v-1.94c0-.86-.16-1.67-.49-2.43-.33-.76-.78-1.42-1.35-1.99Z"/>
      <path class="cls-1" d="m128.06,121.51c-.76-.33-1.58-.49-2.45-.49h-8.41v4.16h0s8.41,0,8.41,0c.29,0,.57.05.82.16.25.11.48.25.67.44.19.19.34.41.45.66.04.09.06.17.09.26h4.25c-.06-.66-.21-1.28-.47-1.87-.33-.75-.78-1.41-1.36-1.98-.57-.57-1.24-1.01-2-1.34Z"/>
      <path class="cls-1" d="m130.68,131.91c-.11-.15-.23-.3-.35-.44,0,0,0,0,0,0,0,0,0,0,0,0-.02-.02-.03-.04-.05-.06.52-.57.92-1.22,1.2-1.94.24-.62.38-1.25.41-1.9h-4.22c-.03.17-.07.34-.14.5-.11.26-.26.48-.45.67-.19.19-.41.34-.67.44-.25.11-.53.16-.82.16h-5.73v.04h-.06v4.21h5.78c.3,0,.57.05.83.16.26.11.48.26.67.45.19.19.34.41.45.67.11.25.16.53.16.82,0,.13-.01.26-.04.39h-.04c-.03.11-.06.22-.1.32-.11.25-.26.47-.45.66-.19.19-.41.34-.67.44-.25.11-.53.16-.82.16h-8.41v.12h-.09v4.21h8.49c.88,0,1.7-.17,2.47-.5.77-.33,1.44-.78,2.02-1.36.58-.57,1.03-1.24,1.37-2,.34-.76.5-1.58.5-2.45,0-.77-.14-1.52-.43-2.25-.22-.55-.5-1.06-.85-1.52Z"/>
      <rect class="cls-1" x="140.37" y="127.14" width="5.42" height="4.16"/>
      <polygon class="cls-1" points="135.29 118.81 135.29 139.62 139.5 139.62 139.5 131.31 139.5 131.31 139.5 127.14 139.5 127.14 139.5 122.98 150 122.98 150 118.81 135.29 118.81"/>
    </g>
  </g>
</svg>