<?xml version="1.0" encoding="UTF-8"?><svg id="Layer_2" xmlns="http://www.w3.org/2000/svg" viewBox="0 0 45 66.67"><defs><style>.cls-1{fill:#fff;}.cls-2{fill:#36a9e1;}</style></defs><g id="Layer_5"><g><polygon class="cls-2" points="45 52.78 0 66.67 0 0 45 0 45 52.78"/><g><polygon class="cls-1" points="17.93 16.78 27.27 16.78 27.27 15.64 17.9 15.64 17.93 16.78"/><path class="cls-1" d="M17.72,10.22s.04,0,.06,0l.11,4.85h9.38v-4.94h0c.23,0,.42-.19,.42-.42s-.19-.42-.42-.42-.42,.19-.42,.42c0,.13,.06,.24,.15,.32l-2.69,2.9-1.78-4.34c.16-.06,.27-.21,.27-.39,0-.23-.19-.42-.42-.42s-.42,.19-.42,.42c0,.18,.12,.34,.28,.39l-1.56,4.41-2.7-2.86c.11-.08,.17-.2,.17-.34,0-.23-.19-.42-.42-.42s-.42,.19-.42,.42,.19,.42,.42,.42Z"/></g></g></g></svg>