<?xml version="1.0" encoding="utf-8"?>
<!-- Generator: Adobe Illustrator 26.2.1, SVG Export Plug-In . SVG Version: 6.00 Build 0)  -->
<svg version="1.1" id="Layer_1" xmlns="http://www.w3.org/2000/svg" xmlns:xlink="http://www.w3.org/1999/xlink" x="0px" y="0px"
	 viewBox="0 0 50.17 18.92" style="enable-background:new 0 0 50.17 18.92;" xml:space="preserve">
<style type="text/css">
	.st0{enable-background:new    ;}
	.st1{fill:#29ABE2;}
</style>
<g class="st0">
	<path class="st1" d="M7.78,2.7V8h2.52v2.6H0V0.1h10.3v2.6H7.78z M14.7,18.92h-3.02l0.78-4.2H0.84V12.3h11.74V0h2.88v4.22h2.04v2.6
		h-2.04v7.9L14.7,18.92z M4.92,2.7H2.9V8h2.02V2.7z"/>
</g>
<g class="st0">
	<path d="M24.41,2.86h3.11v2.24h-1.6c0.66,0.56,1.09,1.29,1.09,2.11v1.31c0,1.68-1.8,3.06-3.86,3.06c-2.07,0-3.76-1.38-3.76-3.06
		V7.28c0-0.9,0.43-1.65,1.05-2.18h-1.56V2.86h3.14V1.72h2.38V2.86z M22.07,16.24h7.65V2.3h2.4v4.25h1.73v2.31h-1.73v9.52H19.69
		v-4.62h2.38V16.24z M24.82,7.67c0-0.78-0.71-1.43-1.6-1.43s-1.61,0.65-1.61,1.43v0.36c0,0.8,0.73,1.43,1.61,1.43s1.6-0.63,1.6-1.43
		V7.67z"/>
	<path d="M35.29,9.61V2.39h7.67v2.16h-5.22V7.4h5.27v2.21H35.29z M46.07,10.87V2.3h2.36v2.65h1.73v2.31h-1.73v8.23H38.41v0.9h10.03
		v1.99H36.01v-4.69h10.03v-0.87H36.01v-1.95H46.07z"/>
</g>
</svg>
