<?xml version="1.0" encoding="UTF-8"?><svg id="Layer_2" xmlns="http://www.w3.org/2000/svg" viewBox="0 0 25 25"><defs><style>.cls-1{fill:#fff;}.cls-2{fill:#dfdfdf;}</style></defs><g id="Layer_1-2"><circle id="_ì›_274" class="cls-2" cx="12.5" cy="12.5" r="12.5"/><path class="cls-1" d="M19.62,19.94l-2.77-4.15c1.27-.64,2.14-1.95,2.14-3.47,0-.59-.13-1.15-.38-1.67,.25-.52,.38-1.09,.38-1.67,0-2.03-1.56-3.7-3.54-3.87-.71-1.07-1.92-1.73-3.24-1.73s-2.52,.66-3.24,1.73c-1.98,.18-3.54,1.85-3.54,3.87,0,.59,.13,1.15,.38,1.67-.25,.52-.38,1.09-.38,1.67,0,2.04,1.58,3.72,3.59,3.88,.72,1.03,1.91,1.67,3.2,1.67,.91,0,1.77-.32,2.45-.88l2.89,4.33,2.08-1.39Zm-7.42-4.07c-.73,0-1.41-.43-1.71-1.09l-.32-.66-.73,.09s-.08,0-.13,0c-1.04,0-1.89-.85-1.89-1.89,0-.39,.12-.77,.35-1.09l.41-.58-.41-.58c-.23-.32-.35-.7-.35-1.09,0-1.09,.97-1.97,2.04-1.88l.72,.07,.29-.66c.3-.69,.98-1.13,1.73-1.13s1.43,.44,1.73,1.13l.33,.66,.73-.08s.04,0,.05,0c1.03,0,1.94,.83,1.95,1.89h0c0,.4-.12,.77-.35,1.09l-.41,.58,.41,.58c.23,.32,.35,.7,.35,1.09,0,1.1-1,1.97-2.07,1.88l-.7-.06-.3,.64c-.31,.67-.98,1.1-1.72,1.1Z"/></g></svg>