<?xml version="1.0" encoding="utf-8"?>
<!-- Generator: Adobe Illustrator 26.2.1, SVG Export Plug-In . SVG Version: 6.00 Build 0)  -->
<svg version="1.1" id="レイヤー_1" xmlns="http://www.w3.org/2000/svg" xmlns:xlink="http://www.w3.org/1999/xlink" x="0px"
	 y="0px" viewBox="0 0 95 95" style="enable-background:new 0 0 95 95;" xml:space="preserve">
<style type="text/css">
	.st0{fill:#FFFFFF;}
</style>
<g>
	<g>
		<path class="st0" d="M24.32,33.04c-1.64,0-2.98-1.34-2.98-2.98v-0.46c0-1.64,1.34-2.98,2.98-2.98H72.2c1.64,0,2.98,1.34,2.98,2.98
			v0.46c0,1.64-1.34,2.98-2.98,2.98H24.32z M24.32,27.94c-0.91,0-1.65,0.74-1.65,1.65v0.46c0,0.91,0.74,1.65,1.65,1.65H72.2
			c0.91,0,1.65-0.74,1.65-1.65v-0.46c0-0.91-0.74-1.65-1.65-1.65H24.32z"/>
	</g>
	<g>
		<path class="st0" d="M24.32,68.39c-1.64,0-2.98-1.34-2.98-2.98v-0.46c0-1.64,1.34-2.98,2.98-2.98H72.2c1.64,0,2.98,1.34,2.98,2.98
			v0.46c0,1.64-1.34,2.98-2.98,2.98H24.32z M24.32,63.29c-0.91,0-1.65,0.74-1.65,1.65v0.46c0,0.91,0.74,1.65,1.65,1.65H72.2
			c0.91,0,1.65-0.74,1.65-1.65v-0.46c0-0.91-0.74-1.65-1.65-1.65H24.32z"/>
	</g>
	<path class="st0" d="M25.94,63.29c-0.37,0-0.66-0.3-0.66-0.66V32.37c0-0.37,0.3-0.66,0.66-0.66h44.63c0.37,0,0.66,0.3,0.66,0.66
		v30.25c0,0.37-0.3,0.66-0.66,0.66H25.94z M26.61,61.96h43.3V33.04h-43.3V61.96z"/>
	<g>
		<g>
			<path class="st0" d="M51.31,45.16c-1.54,0-2.74-1.63-2.74-3.7c0-2.08,1.2-3.7,2.74-3.7c1.54,0,2.74,1.63,2.74,3.7
				C54.06,43.53,52.85,45.16,51.31,45.16z M51.31,38.88c-0.88,0-1.61,1.18-1.61,2.57c0,1.39,0.74,2.57,1.61,2.57
				c0.88,0,1.62-1.18,1.62-2.57C52.93,40.06,52.19,38.88,51.31,38.88z"/>
		</g>
		<g>
			<path class="st0" d="M57.16,48.29c-1.32,0-2.36-1.38-2.36-3.15c0-1.76,1.04-3.15,2.36-3.15c1.32,0,2.36,1.38,2.36,3.15
				C59.52,46.91,58.49,48.29,57.16,48.29z M57.16,43.13c-0.67,0-1.23,0.92-1.23,2.02c0,1.09,0.56,2.02,1.23,2.02
				c0.67,0,1.23-0.92,1.23-2.02C58.39,44.05,57.83,43.13,57.16,43.13z"/>
		</g>
		<g>
			<path class="st0" d="M39.36,48.29c-1.32,0-2.36-1.38-2.36-3.15c0-1.76,1.04-3.15,2.36-3.15c1.32,0,2.36,1.38,2.36,3.15
				C41.71,46.91,40.68,48.29,39.36,48.29z M39.36,43.13c-0.67,0-1.23,0.92-1.23,2.02c0,1.09,0.56,2.02,1.23,2.02
				c0.67,0,1.23-0.92,1.23-2.02C40.59,44.05,40.02,43.13,39.36,43.13z"/>
		</g>
		<g>
			<path class="st0" d="M44.78,45.16c-1.54,0-2.74-1.63-2.74-3.7c0-2.08,1.2-3.7,2.74-3.7c1.54,0,2.74,1.63,2.74,3.7
				C47.53,43.53,46.32,45.16,44.78,45.16z M44.78,38.88c-0.88,0-1.61,1.18-1.61,2.57c0,1.39,0.74,2.57,1.61,2.57
				c0.88,0,1.62-1.18,1.62-2.57C46.4,40.06,45.66,38.88,44.78,38.88z"/>
		</g>
		<g>
			<g>
				<path class="st0" d="M51.82,58.3c-1.94,0-2.96-0.81-3.56-1.77c-0.59,0.92-1.61,1.77-3.57,1.77c-2.51,0-4.4-1.93-4.4-4.48
					c0-2.81,2.17-4.96,4.2-6.75c2.09-1.85,5.25-1.84,7.34,0.02c2.53,2.25,4.47,4.14,4.47,6.37C56.3,56.8,54.05,58.3,51.82,58.3z
					 M48.27,54.66c0.24,0,0.45,0.15,0.53,0.37c0.48,1.29,1.17,2.14,3.02,2.14c1.62,0,3.35-0.98,3.35-3.71
					c0-1.76-1.85-3.54-4.09-5.53c-1.67-1.48-4.18-1.49-5.85-0.01c-1.85,1.63-3.82,3.57-3.82,5.9c0,1.94,1.38,3.35,3.28,3.35
					c1.92,0,2.58-0.97,3-2.02l0.03-0.1c0.07-0.23,0.29-0.38,0.53-0.39C48.26,54.66,48.26,54.66,48.27,54.66z"/>
			</g>
		</g>
	</g>
</g>
</svg>
