<?xml version="1.0" encoding="utf-8"?>
<!-- Generator: Adobe Illustrator 26.2.1, SVG Export Plug-In . SVG Version: 6.00 Build 0)  -->
<svg version="1.1" id="レイヤー_1" xmlns="http://www.w3.org/2000/svg" xmlns:xlink="http://www.w3.org/1999/xlink" x="0px"
	 y="0px" viewBox="0 0 95 95" style="enable-background:new 0 0 95 95;" xml:space="preserve">
<style type="text/css">
	.st0{fill:#474747;}
	.st1{fill:#29ABE2;}
</style>
<g>
	<g>
		<g>
			<path class="st0" d="M71.85,63.79H23.14c-0.59,0-1.14-0.28-1.5-0.78c-0.41-0.55-0.53-1.27-0.32-1.94l4.05-20.24
				c0.27-0.91,1.01-1.48,1.84-1.48h39.81c0.8,0,1.53,0.55,1.8,1.36l4.85,20.35c0.21,0.62,0.11,1.36-0.3,1.92
				C73.01,63.5,72.45,63.79,71.85,63.79z M27.21,40.55c-0.3,0-0.58,0.23-0.69,0.58l-4.05,20.24c-0.11,0.36-0.05,0.69,0.13,0.93
				c0.08,0.11,0.26,0.29,0.54,0.29h48.71c0.29,0,0.47-0.19,0.55-0.31c0.18-0.25,0.23-0.59,0.12-0.9l-4.85-20.35
				c-0.1-0.27-0.37-0.49-0.66-0.49H27.21z"/>
		</g>
		<g>
			<path class="st1" d="M56.51,58c-1.99,0-3.54-1.31-4.9-2.78h-8.43C41.91,56.6,40.43,58,38.77,58c-2.73,0-3.95-1.84-3.95-3.66
				c0-1.46,0.59-2.29,1.28-2.79c-0.63-0.47-1.28-1.3-1.28-2.8c0-2.06,1.57-3.61,3.66-3.61c1.99,0,3.54,1.31,4.9,2.78h8.43
				c1.27-1.38,2.75-2.78,4.42-2.78c2.73,0,3.95,1.84,3.95,3.66c0,1.46-0.59,2.29-1.28,2.79c0.63,0.47,1.28,1.3,1.28,2.8
				C60.17,56.45,58.6,58,56.51,58z M42.92,54.03h8.95c0.17,0,0.33,0.07,0.44,0.19c1.22,1.34,2.58,2.59,4.2,2.59
				c1.43,0,2.47-1.01,2.47-2.41c0-1.42-0.72-1.91-1.5-2.22l-0.05-0.02c-0.24-0.08-0.41-0.3-0.41-0.55
				c-0.01-0.25,0.15-0.48,0.39-0.57c0.97-0.36,1.58-0.86,1.58-2.23c0-1.2-0.72-2.47-2.76-2.47c-1.13,0-2.3,1.03-3.71,2.59
				c-0.11,0.12-0.27,0.2-0.44,0.2h-8.95c-0.17,0-0.33-0.07-0.44-0.2c-1.22-1.34-2.58-2.59-4.2-2.59c-1.43,0-2.47,1.01-2.47,2.41
				c0,1.42,0.72,1.91,1.5,2.22l0.05,0.02c0.24,0.08,0.41,0.3,0.41,0.55c0.01,0.25-0.15,0.48-0.39,0.57
				c-0.97,0.36-1.58,0.86-1.58,2.23c0,1.2,0.72,2.47,2.76,2.47c1.13,0,2.3-1.03,3.71-2.59C42.59,54.1,42.75,54.03,42.92,54.03z"/>
		</g>
		<g>
			<path class="st0" d="M65.27,40.37c-0.1,0-0.2-0.02-0.29-0.08c-0.29-0.16-0.39-0.53-0.22-0.81c0.28-0.49,0.43-1.06,0.43-1.64
				c0-1.68-1.2-3.05-2.68-3.05c-0.67,0-1.32,0.29-1.82,0.81c-0.22,0.24-0.64,0.24-0.86,0c-0.5-0.52-1.14-0.81-1.82-0.81
				c-0.67,0-1.31,0.29-1.81,0.8c-0.15,0.16-0.38,0.22-0.6,0.16c-0.21-0.06-0.37-0.24-0.42-0.45c-0.28-1.39-1.36-2.35-2.61-2.35
				c-1.32,0-2.46,1.12-2.65,2.61c-0.04,0.28-0.26,0.49-0.54,0.52c-0.28,0.02-0.54-0.15-0.62-0.42c-0.37-1.23-1.39-2.05-2.53-2.05
				c-1.06,0-2.03,0.71-2.46,1.82c-0.08,0.21-0.28,0.36-0.5,0.38c-0.23,0.02-0.44-0.09-0.56-0.28c-0.5-0.81-1.32-1.3-2.19-1.3
				c-0.46,0-0.89,0.13-1.3,0.38c-0.15,0.1-0.34,0.12-0.51,0.06c-0.17-0.06-0.31-0.19-0.37-0.36c-0.41-1.16-1.39-1.91-2.49-1.91
				c-1.48,0-2.68,1.37-2.68,3.05c0,0.19,0.02,0.39,0.05,0.59c0.04,0.2-0.04,0.41-0.19,0.55c-0.16,0.14-0.37,0.18-0.57,0.12
				c-0.24-0.08-0.48-0.11-0.72-0.11c-1.48,0-2.68,1.37-2.68,3.05c0,0.33-0.27,0.6-0.6,0.6c-0.33,0-0.6-0.27-0.6-0.6
				c0-2.34,1.74-4.24,3.88-4.24c0.08,0,0.16,0,0.24,0.01c0.02-2.32,1.75-4.2,3.88-4.2c1.4,0,2.65,0.8,3.34,2.09
				c0.42-0.17,0.87-0.26,1.32-0.26c0.97,0,1.89,0.4,2.6,1.09c0.72-1.07,1.87-1.72,3.12-1.72c1.17,0,2.25,0.57,2.97,1.51
				c0.67-1.3,1.95-2.17,3.38-2.17c1.53,0,2.87,0.96,3.5,2.41c1.28-0.81,2.98-0.72,4.19,0.22c0.65-0.51,1.44-0.79,2.25-0.79
				c2.14,0,3.88,1.9,3.88,4.24c0,0.79-0.2,1.56-0.58,2.23C65.67,40.26,65.47,40.37,65.27,40.37z"/>
		</g>
	</g>
</g>
</svg>
