<?xml version="1.0" encoding="UTF-8"?><svg id="Layer_2" xmlns="http://www.w3.org/2000/svg" viewBox="0 0 55.93 55.93"><defs><style>.cls-1{fill:#fff;}</style></defs><g id="_イヤー_1"><path class="cls-1" d="M27.96,55.93C12.54,55.93,0,43.39,0,27.97S12.54,0,27.96,0s27.96,12.55,27.96,27.97-12.54,27.96-27.96,27.96ZM27.96,1.2C13.21,1.2,1.2,13.21,1.2,27.97s12.01,26.77,26.76,26.77,26.77-12.01,26.77-26.77S42.72,1.2,27.96,1.2Z"/><g><path class="cls-1" d="M16.54,20.67h1.39l5.37,14.6h-1.48l-1.65-4.46h-6.05l-1.63,4.46h-1.35l5.4-14.6Zm-2,8.92h5.2l-2.57-7.03h-.04l-2.59,7.03Z"/><path class="cls-1" d="M25.61,20.67h1.39v13.4h6.85v1.2h-8.25v-14.6Z"/><path class="cls-1" d="M36.54,20.67h1.39v13.4h6.85v1.2h-8.25v-14.6Z"/></g></g></svg>