<?xml version="1.0" encoding="utf-8"?>
<!-- Generator: Adobe Illustrator 26.2.1, SVG Export Plug-In . SVG Version: 6.00 Build 0)  -->
<svg version="1.1" id="レイヤー_1" xmlns="http://www.w3.org/2000/svg" xmlns:xlink="http://www.w3.org/1999/xlink" x="0px"
	 y="0px" viewBox="0 0 95 95" style="enable-background:new 0 0 95 95;" xml:space="preserve">
<style type="text/css">
	.st0{fill:#474747;stroke:#474747;stroke-width:0.1;stroke-miterlimit:10;}
	.st1{fill:#29ABE2;}
	.st2{fill:none;stroke:#474747;stroke-width:2;stroke-linecap:round;stroke-linejoin:round;stroke-miterlimit:10;}
	.st3{fill:#474747;stroke:#474747;stroke-width:0.25;stroke-miterlimit:10;}
</style>
<g>
	<g>
		<g>
			<path class="st0" d="M43.24,44.15c-0.66,0-1.32-0.11-1.96-0.34c-1.71-0.62-3.01-2.01-3.67-3.9c-0.65-1.85-0.6-3.97,0.13-5.96
				c0.73-2,2.06-3.65,3.75-4.64c1.73-1.02,3.61-1.24,5.32-0.61c1.71,0.62,3.01,2.01,3.67,3.9c0.65,1.85,0.6,3.97-0.13,5.96l0,0
				C49.11,41.96,46.17,44.15,43.24,44.15z M44.84,29.58c-0.91,0-1.84,0.27-2.72,0.79c-1.44,0.85-2.58,2.27-3.22,4
				c-0.63,1.73-0.68,3.55-0.12,5.13c0.54,1.54,1.58,2.66,2.93,3.15c2.84,1.04,6.2-0.99,7.49-4.52l0,0c0.63-1.73,0.68-3.55,0.12-5.13
				c-0.54-1.54-1.58-2.66-2.93-3.15C45.89,29.67,45.37,29.58,44.84,29.58z M49.77,38.34L49.77,38.34L49.77,38.34z"/>
		</g>
		<g>
			<path class="st0" d="M43.63,40.75c-0.39,0-0.78-0.07-1.15-0.2c-0.99-0.36-1.75-1.16-2.13-2.25c-0.37-1.05-0.34-2.25,0.07-3.37
				c0.87-2.37,3.2-3.7,5.2-2.97c0.99,0.36,1.75,1.16,2.13,2.25c0.37,1.05,0.34,2.25-0.07,3.37l0,0c-0.41,1.13-1.17,2.06-2.12,2.62
				C44.94,40.57,44.28,40.75,43.63,40.75z M44.47,32.98c-1.17,0-2.37,0.93-2.9,2.37c-0.31,0.86-0.34,1.76-0.06,2.54
				c0.26,0.74,0.75,1.27,1.39,1.5c0.64,0.23,1.36,0.14,2.03-0.25c0.71-0.42,1.28-1.12,1.59-1.99c0.31-0.86,0.34-1.76,0.07-2.54
				c-0.26-0.74-0.75-1.27-1.39-1.5C44.96,33.02,44.71,32.98,44.47,32.98z M47.1,37.37L47.1,37.37L47.1,37.37z"/>
		</g>
	</g>
	<g>
		<g>
			<path class="st0" d="M28.21,44.15c-2.93,0-5.87-2.2-7.11-5.6l0,0c-1.52-4.17,0.06-8.59,3.54-9.86c3.48-1.27,7.55,1.09,9.07,5.25
				c1.52,4.17-0.07,8.59-3.54,9.86C29.53,44.04,28.87,44.15,28.21,44.15z M22.25,38.13c1.29,3.53,4.65,5.56,7.49,4.52
				c2.84-1.04,4.1-4.75,2.81-8.28c-1.29-3.53-4.65-5.56-7.49-4.52C22.22,30.89,20.96,34.6,22.25,38.13L22.25,38.13z"/>
		</g>
		<g>
			<path class="st0" d="M27.82,40.75c-0.65,0-1.31-0.19-1.93-0.55c-0.96-0.56-1.71-1.5-2.12-2.62l0,0
				c-0.41-1.13-0.44-2.33-0.07-3.37c0.38-1.09,1.14-1.89,2.13-2.25c0.99-0.36,2.09-0.24,3.08,0.35c0.96,0.56,1.71,1.5,2.12,2.62
				c0.41,1.13,0.44,2.33,0.07,3.37c-0.38,1.09-1.14,1.89-2.13,2.25C28.6,40.69,28.21,40.75,27.82,40.75z M24.93,37.15
				c0.31,0.86,0.88,1.57,1.59,1.99c0.67,0.4,1.39,0.49,2.03,0.25c0.64-0.23,1.13-0.77,1.39-1.5c0.27-0.78,0.25-1.68-0.07-2.54
				c-0.31-0.86-0.88-1.57-1.59-1.99c-0.67-0.4-1.39-0.49-2.03-0.25c-0.64,0.23-1.13,0.77-1.39,1.5
				C24.59,35.39,24.61,36.29,24.93,37.15L24.93,37.15z"/>
		</g>
	</g>
	<g>
		<path class="st0" d="M25.04,68.07c-0.04,0-0.08,0-0.12-0.01c-0.23-0.05-0.42-0.22-0.47-0.45c-0.06-0.23-1.42-5.64,0.91-9.32
			c2.21-3.48,12.89-16.17,13.35-16.71c0.22-0.26,0.61-0.29,0.87-0.07c0.26,0.22,0.29,0.61,0.07,0.87
			c-0.11,0.13-11.08,13.16-13.25,16.58c-1.41,2.21-1.25,5.29-1,7.02l17.29-22.7c0.21-0.27,0.59-0.32,0.86-0.12
			c0.27,0.21,0.32,0.59,0.12,0.86L25.53,67.82C25.41,67.98,25.23,68.07,25.04,68.07z"/>
	</g>
	<g>
		<path class="st0" d="M35.47,46.41c-0.18,0-0.35-0.08-0.47-0.22c-1.84-2.22-3.18-3.81-3.18-3.81c-0.22-0.26-0.19-0.65,0.07-0.87
			c0.26-0.22,0.65-0.19,0.87,0.07c0,0,1.34,1.59,3.19,3.82c0.22,0.26,0.18,0.65-0.08,0.87C35.74,46.36,35.61,46.41,35.47,46.41z"/>
	</g>
	<g>
		<path class="st0" d="M46.41,68.07c-0.19,0-0.37-0.09-0.49-0.24L35.23,53.79c-0.21-0.27-0.15-0.66,0.12-0.86
			c0.27-0.21,0.66-0.15,0.86,0.12l9.85,12.92c0.24-1.74,0.4-4.82-1-7.02c-0.85-1.34-3.24-4.43-6.92-8.94
			c-0.21-0.26-0.18-0.65,0.09-0.87c0.26-0.22,0.65-0.17,0.87,0.09c3.76,4.61,6.12,7.66,7,9.06c2.33,3.67,0.97,9.09,0.91,9.32
			c-0.06,0.23-0.24,0.4-0.47,0.45C46.49,68.06,46.45,68.07,46.41,68.07z"/>
	</g>
	<g>
		<path class="st0" d="M32.83,50.24c-0.19,0-0.37-0.08-0.49-0.24l-4.55-5.98c-0.21-0.27-0.15-0.66,0.12-0.86
			c0.27-0.21,0.66-0.15,0.86,0.12l4.55,5.98c0.21,0.27,0.15,0.66-0.12,0.86C33.09,50.2,32.96,50.24,32.83,50.24z"/>
	</g>
</g>
<path class="st1" d="M36.79,49.62c0,0.59-0.48,1.07-1.07,1.07c-0.59,0-1.07-0.48-1.07-1.07c0-0.59,0.48-1.07,1.07-1.07
	C36.31,48.55,36.79,49.03,36.79,49.62z"/>
<g>
	<g>
		<path class="st1" d="M62.08,63.22c-0.25,0-0.49-0.16-0.58-0.41c-0.1-0.28-2.48-7.01-2.48-14.24c0-7.23,3.11-15.42,3.24-15.76
			c0.12-0.32,0.48-0.48,0.8-0.35c0.32,0.12,0.48,0.48,0.35,0.8c-0.03,0.08-3.16,8.32-3.16,15.32c0,7,2.38,13.75,2.4,13.82
			c0.11,0.32-0.05,0.67-0.37,0.79C62.22,63.21,62.15,63.22,62.08,63.22z"/>
	</g>
	<g>
		<g>
			<path class="st2" d="M56.72,30.85"/>
		</g>
	</g>
	<g>
		<path class="st3" d="M72.73,66.63H57.85c-0.17,0-0.34-0.07-0.45-0.2l-1.14-1.23c-0.02-0.02-0.03-0.03-0.04-0.05
			c-0.18-0.25-4.49-6.25-4.49-16.46c0-10.17,4.27-17.82,4.45-18.14c0.02-0.04,0.05-0.08,0.08-0.11l1.14-1.23
			c0.12-0.13,0.28-0.2,0.45-0.2h14.87c0.97,0,1.75,0.83,1.75,1.85c0,0.34-0.28,0.62-0.62,0.62c-0.34,0-0.62-0.28-0.62-0.62
			c0-0.33-0.24-0.62-0.52-0.62h-14.6l-0.9,0.98c-0.4,0.73-4.26,8.09-4.26,17.47c0,9.46,3.94,15.28,4.24,15.71l0.93,1.01h14.6
			c0.28,0,0.52-0.28,0.52-0.62c0-0.33-0.24-0.62-0.52-0.62c-0.34,0-0.62-0.28-0.62-0.62c0-0.34,0.28-0.62,0.62-0.62
			c0.97,0,1.75,0.83,1.75,1.85S73.7,66.63,72.73,66.63z"/>
	</g>
	<g>
		<path class="st1" d="M71.66,34.82h-9.23c-0.34,0-0.62-0.28-0.62-0.62c0-0.34,0.28-0.62,0.62-0.62h9.23c0.34,0,0.62,0.28,0.62,0.62
			C72.27,34.54,72,34.82,71.66,34.82z"/>
	</g>
	<g>
		<path class="st1" d="M71.66,38.58h-9.23c-0.34,0-0.62-0.28-0.62-0.62c0-0.34,0.28-0.62,0.62-0.62h9.23c0.34,0,0.62,0.28,0.62,0.62
			C72.27,38.3,72,38.58,71.66,38.58z"/>
	</g>
	<g>
		<path class="st1" d="M71.66,42.33H60.9c-0.34,0-0.62-0.28-0.62-0.62s0.28-0.62,0.62-0.62h10.76c0.34,0,0.62,0.28,0.62,0.62
			S72,42.33,71.66,42.33z"/>
	</g>
	<g>
		<path class="st1" d="M71.66,46.09H60.9c-0.34,0-0.62-0.28-0.62-0.62c0-0.34,0.28-0.62,0.62-0.62h10.76c0.34,0,0.62,0.28,0.62,0.62
			C72.27,45.82,72,46.09,71.66,46.09z"/>
	</g>
	<g>
		<path class="st1" d="M71.66,49.85H60.9c-0.34,0-0.62-0.28-0.62-0.62c0-0.34,0.28-0.62,0.62-0.62h10.76c0.34,0,0.62,0.28,0.62,0.62
			C72.27,49.58,72,49.85,71.66,49.85z"/>
	</g>
	<g>
		<path class="st1" d="M71.66,53.61H60.9c-0.34,0-0.62-0.28-0.62-0.62c0-0.34,0.28-0.62,0.62-0.62h10.76c0.34,0,0.62,0.28,0.62,0.62
			C72.27,53.34,72,53.61,71.66,53.61z"/>
	</g>
	<g>
		<path class="st1" d="M71.66,57.35H60.9c-0.34,0-0.62-0.28-0.62-0.62c0-0.34,0.28-0.62,0.62-0.62h10.76c0.34,0,0.62,0.28,0.62,0.62
			C72.27,57.07,72,57.35,71.66,57.35z"/>
	</g>
	<g>
		<path class="st1" d="M71.66,61.11h-9.23c-0.34,0-0.62-0.28-0.62-0.62c0-0.34,0.28-0.62,0.62-0.62h9.23c0.34,0,0.62,0.28,0.62,0.62
			C72.27,60.83,72,61.11,71.66,61.11z"/>
	</g>
</g>
</svg>
