<?xml version="1.0" encoding="utf-8"?>
<!-- Generator: Adobe Illustrator 26.2.1, SVG Export Plug-In . SVG Version: 6.00 Build 0)  -->
<svg version="1.1" id="レイヤー_1" xmlns="http://www.w3.org/2000/svg" xmlns:xlink="http://www.w3.org/1999/xlink" x="0px"
	 y="0px" viewBox="0 0 95 95" style="enable-background:new 0 0 95 95;" xml:space="preserve">
<style type="text/css">
	.st0{fill:#474747;}
	.st1{fill:#29ABE2;}
</style>
<g>
	<g>
		<path class="st0" d="M68.72,74.3H26.28c-0.38,0-0.69-0.31-0.69-0.69V47.4c0-0.38,0.31-0.69,0.69-0.69c0.38,0,0.69,0.31,0.69,0.69
			v25.51h41.06V46.56c0-0.38,0.31-0.69,0.69-0.69c0.38,0,0.69,0.31,0.69,0.69v27.05C69.42,73.99,69.11,74.3,68.72,74.3z"/>
	</g>
	<g>
		<path class="st1" d="M58.11,74.3H36.89c-0.38,0-0.69-0.31-0.69-0.69V58.04c0-0.38,0.31-0.69,0.69-0.69h21.22
			c0.38,0,0.69,0.31,0.69,0.69v15.57C58.81,73.99,58.5,74.3,58.11,74.3z M37.58,72.91h19.84V58.73H37.58V72.91z"/>
	</g>
	<g>
		<path class="st0" d="M31.58,53.54c-3.31,0-6-2.69-6-6V34.98c0-0.38,0.31-0.69,0.69-0.69c0.38,0,0.69,0.31,0.69,0.69v12.56
			c0,2.54,2.07,4.61,4.61,4.61c2.54,0,4.61-2.07,4.61-4.61V34.98c0-0.38,0.31-0.69,0.69-0.69c0.38,0,0.69,0.31,0.69,0.69v12.56
			C37.58,50.85,34.89,53.54,31.58,53.54z"/>
	</g>
	<g>
		<path class="st0" d="M42.19,53.54c-3.31,0-6-2.69-6-6V34.98c0-0.38,0.31-0.69,0.69-0.69c0.38,0,0.69,0.31,0.69,0.69v12.56
			c0,2.54,2.07,4.61,4.61,4.61c2.54,0,4.61-2.07,4.61-4.61V34.98c0-0.38,0.31-0.69,0.69-0.69c0.38,0,0.69,0.31,0.69,0.69v12.56
			C48.19,50.85,45.5,53.54,42.19,53.54z"/>
	</g>
	<g>
		<path class="st0" d="M52.81,53.54c-3.31,0-6-2.69-6-6V34.98c0-0.38,0.31-0.69,0.69-0.69c0.38,0,0.69,0.31,0.69,0.69v12.56
			c0,2.54,2.07,4.61,4.61,4.61c2.54,0,4.61-2.07,4.61-4.61V34.98c0-0.38,0.31-0.69,0.69-0.69c0.38,0,0.69,0.31,0.69,0.69v12.56
			C58.81,50.85,56.11,53.54,52.81,53.54z"/>
	</g>
	<g>
		<path class="st0" d="M63.42,53.54c-3.31,0-6-2.69-6-6V34.98c0-0.38,0.31-0.69,0.69-0.69c0.38,0,0.69,0.31,0.69,0.69v12.56
			c0,2.54,2.07,4.61,4.61,4.61c2.54,0,4.61-2.07,4.61-4.61V34.98c0-0.38,0.31-0.69,0.69-0.69c0.38,0,0.69,0.31,0.69,0.69v12.56
			C69.42,50.85,66.73,53.54,63.42,53.54z"/>
	</g>
	<g>
		<path class="st0" d="M68.72,35.67H26.28c-0.38,0-0.69-0.31-0.69-0.69c0-0.38,0.31-0.69,0.69-0.69h42.45
			c0.38,0,0.69,0.31,0.69,0.69C69.42,35.36,69.11,35.67,68.72,35.67z"/>
	</g>
	<g>
		<path class="st0" d="M59.07,34.55c-2.14,0-3.8-1.4-5.26-2.98H41c-1.36,1.48-2.95,2.98-4.74,2.98c-2.95,0-4.27-2-4.27-3.97
			c0-1.54,0.6-2.43,1.33-2.98c-0.67-0.52-1.33-1.41-1.33-2.99c0-2.23,1.71-3.91,3.97-3.91c2.14,0,3.8,1.4,5.26,2.97h12.81
			c1.36-1.48,2.95-2.97,4.74-2.97c2.95,0,4.27,2,4.27,3.97c0,1.54-0.6,2.43-1.33,2.98c0.67,0.52,1.33,1.41,1.33,2.99
			C63.04,32.87,61.33,34.55,59.07,34.55z M40.7,30.19h13.42c0.2,0,0.38,0.08,0.51,0.23c1.3,1.43,2.73,2.75,4.44,2.75
			c1.5,0,2.59-1.06,2.59-2.52c0-1.41-0.63-1.94-1.57-2.32l-0.05-0.02c-0.28-0.09-0.47-0.35-0.48-0.64C59.55,27.37,59.73,27.1,60,27
			c1.02-0.38,1.65-0.9,1.65-2.33c0-1.25-0.76-2.59-2.89-2.59c-1.18,0-2.43,1.1-3.93,2.75c-0.13,0.14-0.32,0.23-0.51,0.23H40.91
			c-0.2,0-0.38-0.08-0.51-0.23c-1.3-1.43-2.73-2.75-4.44-2.75c-1.5,0-2.58,1.06-2.58,2.52c0,1.41,0.63,1.94,1.57,2.32l0.05,0.02
			c0.28,0.09,0.47,0.35,0.48,0.64c0.01,0.3-0.17,0.56-0.45,0.67c-1.02,0.38-1.65,0.9-1.65,2.33c0,1.25,0.76,2.59,2.89,2.59
			c1.18,0,2.43-1.1,3.92-2.75C40.32,30.27,40.5,30.19,40.7,30.19z"/>
	</g>
</g>
</svg>
