<?xml version="1.0" encoding="utf-8"?>
<!-- Generator: Adobe Illustrator 26.2.1, SVG Export Plug-In . SVG Version: 6.00 Build 0)  -->
<svg version="1.1" id="レイヤー_1" xmlns="http://www.w3.org/2000/svg" xmlns:xlink="http://www.w3.org/1999/xlink" x="0px"
	 y="0px" viewBox="0 0 95 95" style="enable-background:new 0 0 95 95;" xml:space="preserve">
<style type="text/css">
	.st0{fill:#FFFFFF;}
</style>
<g>
	<path class="st0" d="M73.15,55.05l-2.81-15.7c-0.72-4.02-4.45-6.94-8.88-6.94h-0.74c-0.37-1.52-1.74-2.65-3.37-2.65h-0.64v-7.02
		c0-1.67-1.36-3.03-3.03-3.03s-3.03,1.36-3.03,3.03v7.02h-0.64c-1.63,0-2.99,1.13-3.37,2.65H33.53c-4.42,0-8.16,2.92-8.88,6.94
		l-2.81,15.7c-0.35,1.96,0.07,3.71,1.2,5.06c0.21,0.25,0.46,0.49,0.72,0.71c0,0.05-0.01,0.1,0,0.15l1.59,8.05
		c0.45,2.13,2.36,3.67,4.54,3.67h35.24c2.19,0,4.06-1.5,4.53-3.65l1.66-8.07c0.02-0.08,0.01-0.15,0-0.23
		c0.23-0.2,0.44-0.42,0.63-0.64C73.09,58.76,73.5,57.01,73.15,55.05z M59.26,65.46H35.67l-0.78-2.49h25.45L59.26,65.46z
		 M30.72,62.97h2.73l1.06,3.38c0.09,0.29,0.35,0.48,0.65,0.48h24.54c0.27,0,0.52-0.16,0.63-0.41l1.49-3.44h2.45
		c2.11,0,4-0.41,5.49-1.17l-1.43,6.96c-0.33,1.51-1.65,2.57-3.2,2.57H29.89c-1.54,0-2.88-1.09-3.2-2.58l-1.37-6.9
		C26.8,62.57,28.65,62.97,30.72,62.97z M47.76,33.24c0-1.24,1.01-2.26,2.26-2.26h1.25c0.34,0,0.61-0.27,0.61-0.61v-7.63
		c0-1,0.81-1.82,1.82-1.82c1,0,1.82,0.81,1.82,1.82v7.63c0,0.34,0.27,0.61,0.61,0.61h1.25c1.24,0,2.26,1.01,2.26,2.26
		c0,0.02,0,0.04,0,0.07l1.15,10.34c0.03,0.31,0.3,0.54,0.6,0.54c0.02,0,0.05,0,0.07,0c0.33-0.04,0.57-0.34,0.54-0.67l-0.69-6.21
		c2.05,0.68,3.58,2.27,3.93,4.16l2.33,11.33c0.22,1.21-0.02,2.25-0.72,3.09c-1.05,1.26-3.02,1.98-5.42,1.98
		c-0.38,0-0.68,0.31-0.68,0.68s0.31,0.68,0.68,0.68c2.8,0,5.16-0.9,6.47-2.48c0.96-1.16,1.31-2.62,1.01-4.23L66.56,41.2
		c-0.47-2.52-2.56-4.63-5.32-5.35c-0.04-0.01-0.08,0-0.11-0.01l-0.23-2.07h0.56c3.76,0,6.93,2.45,7.53,5.82l2.81,15.7
		c0.28,1.57-0.02,2.89-0.9,3.94c-1.26,1.5-3.68,2.37-6.63,2.37H61.6h-0.22H33.96h-3.23c-2.95,0-5.37-0.86-6.63-2.37
		c-0.88-1.05-1.18-2.38-0.9-3.94L26,39.59c0.6-3.37,3.77-5.82,7.53-5.82h12.95l-0.2,1.8c-0.01,0-0.02-0.01-0.03-0.01H35.92
		c-3.72,0-6.87,2.36-7.48,5.62l-2.33,11.35c-0.3,1.6,0.05,3.06,1.01,4.21c1.31,1.57,3.66,2.48,6.46,2.48c0.38,0,0.68-0.31,0.68-0.68
		s-0.31-0.68-0.68-0.68c-2.39,0-4.37-0.72-5.41-1.98c-0.7-0.85-0.95-1.88-0.72-3.08l2.33-11.36c0.49-2.62,3.07-4.52,6.14-4.52h10.22
		l-0.67,6.03h-2.58c-0.34,0-0.61,0.27-0.61,0.61c0,0.34,0.27,0.61,0.61,0.61h14.44c0.34,0,0.61-0.27,0.61-0.61
		c0-0.34-0.27-0.61-0.61-0.61H46.69l1.07-9.66C47.76,33.28,47.76,33.26,47.76,33.24z"/>
	<path class="st0" d="M46.93,49.77c-0.43,0-0.85,0.08-1.25,0.2c-0.83-1.31-2.28-2.12-3.84-2.12c-1.56,0-3.02,0.82-3.85,2.14
		c-0.41-0.12-0.84-0.21-1.3-0.21c-2.5,0-4.54,2.04-4.54,4.54c0,0.38,0.31,0.68,0.68,0.68c0.38,0,0.68-0.31,0.68-0.68
		c0-1.75,1.42-3.18,3.18-3.18s3.18,1.42,3.18,3.18c0,0.38,0.31,0.68,0.68,0.68c0.38,0,0.68-0.31,0.68-0.68
		c0-1.56-0.79-2.94-1.99-3.75c0.59-0.84,1.56-1.35,2.59-1.35c1.02,0,1.98,0.5,2.57,1.32c-1.22,0.81-2.04,2.2-2.04,3.78
		c0,0.38,0.31,0.68,0.68,0.68c0.38,0,0.68-0.31,0.68-0.68c0-1.75,1.42-3.18,3.18-3.18s3.18,1.42,3.18,3.18
		c0,0.38,0.31,0.68,0.68,0.68c0.38,0,0.68-0.31,0.68-0.68C51.48,51.81,49.44,49.77,46.93,49.77z"/>
	<path class="st0" d="M35.27,46.32c1.1,0,2-0.9,2-2s-0.9-2-2-2s-2,0.9-2,2S34.17,46.32,35.27,46.32z M34.64,44.32
		c0-0.35,0.28-0.63,0.63-0.63s0.63,0.28,0.63,0.63s-0.28,0.63-0.63,0.63S34.64,44.67,34.64,44.32z"/>
	<path class="st0" d="M61.6,54.57c1.1,0,2-0.9,2-2c0-1.1-0.9-2-2-2c-1.1,0-2,0.9-2,2C59.6,53.67,60.5,54.57,61.6,54.57z
		 M60.97,52.57c0-0.35,0.28-0.63,0.63-0.63s0.63,0.28,0.63,0.63s-0.28,0.63-0.63,0.63S60.97,52.92,60.97,52.57z"/>
</g>
</svg>
