<?xml version="1.0" encoding="utf-8"?>
<!-- Generator: Adobe Illustrator 26.2.1, SVG Export Plug-In . SVG Version: 6.00 Build 0)  -->
<svg version="1.1" id="Layer_1" xmlns="http://www.w3.org/2000/svg" xmlns:xlink="http://www.w3.org/1999/xlink" x="0px" y="0px"
	 viewBox="0 0 21 19.31" style="enable-background:new 0 0 21 19.31;" xml:space="preserve">
<style type="text/css">
	.st0{fill:#FFFFFF;}
</style>
<g>
	<path class="st0" d="M10.5,19.31l-0.83-0.62c-6.1-4.52-9.25-8.38-9.63-11.8c-0.2-1.66,0.33-3.32,1.46-4.57
		C2.57,0.94,4.22,0.08,6.02,0h0.1c1.61,0.08,3.15,0.67,4.38,1.65c1.26-1.01,2.82-1.59,4.44-1.65c1.83,0.08,3.49,0.93,4.58,2.35
		c1.1,1.21,1.63,2.88,1.43,4.54c-0.38,3.41-3.53,7.27-9.63,11.79L10.5,19.31z M6.09,1C4.56,1.06,3.18,1.78,2.27,2.96
		C1.31,4.02,0.87,5.4,1.03,6.78c0.35,3.13,3.37,6.76,9.24,11.11l0.23,0.17l0.23-0.17c5.86-4.35,8.88-7.98,9.23-11.1
		c0.17-1.38-0.27-2.76-1.21-3.79c-0.93-1.22-2.31-1.94-3.81-2c-1.5,0.06-2.97,0.65-4.1,1.68l-0.33,0.3l-0.33-0.3
		C9.05,1.68,7.6,1.08,6.09,1z"/>
</g>
</svg>
