<?xml version="1.0" encoding="utf-8"?>
<!-- Generator: Adobe Illustrator 26.2.1, SVG Export Plug-In . SVG Version: 6.00 Build 0)  -->
<svg version="1.1" id="レイヤー_1" xmlns="http://www.w3.org/2000/svg" xmlns:xlink="http://www.w3.org/1999/xlink" x="0px"
	 y="0px" viewBox="0 0 95 95" style="enable-background:new 0 0 95 95;" xml:space="preserve">
<style type="text/css">
	.st0{fill:#474747;stroke:#474747;stroke-width:0.3;stroke-miterlimit:10;}
	.st1{fill:#29ABE2;}
</style>
<g>
	<g>
		<g>
			<path class="st0" d="M40.37,51.6c-4.66,0-8.31-1.3-10.86-3.86c-3.65-3.67-3.68-8.55-3.68-8.76V28.17
				c-0.01-1.02,0.55-3.13,2.74-3.83c0.33-0.11,0.68,0.08,0.79,0.41c0.11,0.33-0.08,0.68-0.41,0.79c-1.85,0.59-1.87,2.55-1.87,2.63
				v10.82c0,0.03,0.02,2.91,1.67,5.72c2.19,3.74,6.1,5.64,11.62,5.64c4.3,0,7.58-1.17,9.76-3.47c3.11-3.29,2.88-7.81,2.88-7.85
				l0-10.86c0-0.04,0-0.08,0.01-0.12c0.03-0.2,0.29-1.95-1.49-2.51c-0.33-0.1-0.51-0.45-0.41-0.78c0.1-0.33,0.45-0.51,0.78-0.41
				c2.27,0.71,2.54,2.81,2.36,3.88v10.76c0.01,0.17,0.25,5.07-3.22,8.75C48.62,50.3,45.03,51.6,40.37,51.6z"/>
		</g>
		<g>
			<path class="st0" d="M52.23,75.14c-4.2,0-7.44-1.13-9.64-3.35c-2.87-2.9-2.86-6.58-2.85-6.74V50.98c0-0.35,0.28-0.63,0.63-0.63
				c0.35,0,0.63,0.28,0.63,0.63v14.08c0,0.04,0.01,3.34,2.51,5.86c1.95,1.97,4.89,2.96,8.73,2.96c3.45,0,6.08-0.98,7.81-2.9
				c2.8-3.11,2.35-7.68,2.34-7.72c0-0.02,0-0.05,0-0.07l0.03-3.45c0-0.34,0.28-0.62,0.63-0.62c0,0,0,0,0.01,0
				c0.35,0,0.62,0.29,0.62,0.63l-0.03,3.42c0.05,0.51,0.4,5.26-2.66,8.66C59,74.02,56.06,75.14,52.23,75.14z"/>
		</g>
		<g>
			<path class="st0" d="M63.04,59.73c-3.96,0-7.18-3.22-7.18-7.18s3.22-7.18,7.18-7.18s7.18,3.22,7.18,7.18S67.01,59.73,63.04,59.73
				z M63.04,46.62c-3.27,0-5.93,2.66-5.93,5.93c0,3.27,2.66,5.93,5.93,5.93c3.27,0,5.93-2.66,5.93-5.93
				C68.98,49.28,66.31,46.62,63.04,46.62z"/>
		</g>
		<g>
			<path class="st0" d="M63.04,55.41c-1.58,0-2.86-1.28-2.86-2.86c0-1.58,1.28-2.86,2.86-2.86c1.58,0,2.86,1.28,2.86,2.86
				C65.9,54.12,64.62,55.41,63.04,55.41z M63.04,50.94c-0.89,0-1.61,0.72-1.61,1.61s0.72,1.6,1.61,1.6c0.88,0,1.61-0.72,1.61-1.6
				S63.93,50.94,63.04,50.94z"/>
		</g>
	</g>
	<g>
		<path class="st1" d="M31.16,27.58c-1.57,0-2.84-1.27-2.84-2.84c0-1.57,1.27-2.84,2.84-2.84c1.57,0,2.84,1.28,2.84,2.84
			C34.01,26.3,32.73,27.58,31.16,27.58z M31.16,23.15c-0.88,0-1.59,0.71-1.59,1.59c0,0.88,0.71,1.59,1.59,1.59
			c0.88,0,1.59-0.71,1.59-1.59C32.75,23.86,32.04,23.15,31.16,23.15z"/>
	</g>
	<g>
		<path class="st1" d="M49.35,27.58c-1.57,0-2.84-1.27-2.84-2.84c0-1.57,1.27-2.84,2.84-2.84c1.57,0,2.84,1.28,2.84,2.84
			C52.19,26.3,50.92,27.58,49.35,27.58z M49.35,23.15c-0.88,0-1.59,0.71-1.59,1.59c0,0.88,0.71,1.59,1.59,1.59
			c0.88,0,1.59-0.71,1.59-1.59C50.94,23.86,50.23,23.15,49.35,23.15z"/>
	</g>
</g>
</svg>
