<?xml version="1.0" encoding="utf-8"?>
<!-- Generator: Adobe Illustrator 26.2.1, SVG Export Plug-In . SVG Version: 6.00 Build 0)  -->
<svg version="1.1" id="レイヤー_1" xmlns="http://www.w3.org/2000/svg" xmlns:xlink="http://www.w3.org/1999/xlink" x="0px"
	 y="0px" viewBox="0 0 95 95" style="enable-background:new 0 0 95 95;" xml:space="preserve">
<style type="text/css">
	.st0{fill:#474747;}
	.st1{fill:#29ABE2;}
</style>
<g>
	<path class="st0" d="M74.7,44.47l-7.05-14.62c-0.04-1.84-0.75-3.57-2.04-4.91c-1.4-1.46-3.29-2.26-5.31-2.26H34.79
		c-2.02,0-3.91,0.8-5.31,2.26c-1.25,1.3-1.96,2.96-2.04,4.74l-7.14,14.8l7.84,4.03l0.61,15.56c0.24,6.2,5.29,11.06,11.5,11.06h14.59
		c6.21,0,11.26-4.86,11.5-11.06l0.61-15.61L74.7,44.47z M67.01,46.81l0.54-13.85l5.25,10.88L67.01,46.81z M58.22,24.12l-5.08,3.98
		c-0.24,0.19-0.55,0.27-0.85,0.23c-0.31-0.05-0.57-0.21-0.75-0.46l-2.62-3.75H58.22z M46.16,24.12l-2.62,3.75
		c-0.18,0.25-0.44,0.42-0.75,0.46c-0.3,0.05-0.61-0.03-0.85-0.23l-5.08-3.98H46.16z M22.21,43.84l5.32-11.04l0.55,14.06L22.21,43.84
		z M54.84,73.69H40.25c-5.43,0-9.85-4.25-10.06-9.68l-1.32-33.75c-0.06-1.62,0.52-3.16,1.65-4.34c1.07-1.11,2.5-1.75,4.04-1.81
		l6.5,5.1c0.45,0.35,1.01,0.55,1.58,0.55c0.12,0,0.25-0.01,0.37-0.03c0.69-0.1,1.32-0.49,1.72-1.06l2.82-4.03l2.82,4.03
		c0.4,0.57,1.03,0.96,1.72,1.06c0.12,0.02,0.25,0.03,0.37,0.03c0.57,0,1.13-0.19,1.58-0.55l6.5-5.1c1.54,0.06,2.96,0.69,4.04,1.81
		c1.1,1.15,1.68,2.65,1.65,4.24l-0.01,0l0.01,0.01c0,0.03,0,0.05,0,0.08L64.9,64.02C64.69,69.44,60.27,73.69,54.84,73.69z"/>
	<path class="st1" d="M47.54,31.2c-1.32,0-2.4,1.08-2.4,2.4c0,1.32,1.08,2.4,2.4,2.4s2.4-1.08,2.4-2.4
		C49.94,32.27,48.86,31.2,47.54,31.2z M47.54,34.91c-0.73,0-1.32-0.59-1.32-1.32c0-0.73,0.59-1.32,1.32-1.32
		c0.73,0,1.32,0.59,1.32,1.32C48.86,34.32,48.27,34.91,47.54,34.91z"/>
</g>
</svg>
