<?xml version="1.0" encoding="utf-8"?>
<!-- Generator: Adobe Illustrator 26.2.1, SVG Export Plug-In . SVG Version: 6.00 Build 0)  -->
<svg version="1.1" id="Layer_1" xmlns="http://www.w3.org/2000/svg" xmlns:xlink="http://www.w3.org/1999/xlink" x="0px" y="0px"
	 viewBox="0 0 21 19.31" style="enable-background:new 0 0 21 19.31;" xml:space="preserve">
<style type="text/css">
	.st0{fill:#FFFFFF;}
</style>
<g id="그룹_295" transform="translate(-610.5 -1402.5)">
	<g id="그룹_269" transform="translate(611 1403)">
		<g id="그룹_268" transform="translate(0.562 4.493)">
			<g id="패스_320">
				<path class="st0" d="M17.86,14.15H1.01c-0.28,0-0.5-0.22-0.5-0.5V0.17c0-0.13,0.05-0.26,0.15-0.35
					c0.09-0.09,0.22-0.15,0.35-0.15c0,0,0,0,0,0c4.52,0.01,16.35,0.03,16.81,0c0.14,0,0.27,0.04,0.38,0.13s0.16,0.23,0.16,0.36
					v13.48C18.36,13.92,18.14,14.15,17.86,14.15z M1.51,13.15h15.85V0.67c-2.54,0.02-13.1,0-15.85-0.01V13.15z"/>
			</g>
			<g id="선_82">
				<rect x="6.45" y="4.17" class="st0" width="6" height="1"/>
			</g>
		</g>
		<g id="패스_321">
			<path class="st0" d="M19.49,5.16H0.51v-5.49h18.97V5.16z M1.51,4.16h16.97V0.67H1.51V4.16z"/>
		</g>
	</g>
</g>
</svg>
