<?xml version="1.0" encoding="utf-8"?>
<!-- Generator: Adobe Illustrator 26.2.1, SVG Export Plug-In . SVG Version: 6.00 Build 0)  -->
<svg version="1.1" id="Layer_1" xmlns="http://www.w3.org/2000/svg" xmlns:xlink="http://www.w3.org/1999/xlink" x="0px" y="0px"
	 viewBox="0 0 21 19.31" style="enable-background:new 0 0 21 19.31;" xml:space="preserve">
<style type="text/css">
	.st0{fill:#FFFFFF;}
</style>
<g id="그룹_295" transform="translate(-610.5 -1402.5)">
	<g id="그룹_269" transform="translate(611 1403)">
		<g>
			<path class="st0" d="M18.77,4.29c-0.1-0.09-0.24-0.14-0.38-0.13c-0.46,0.03-12.3,0.01-16.81,0c0,0,0,0,0,0
				c-0.13,0-0.26,0.05-0.35,0.15C1.13,4.4,1.08,4.53,1.08,4.66v13.48c0,0.28,0.22,0.5,0.5,0.5h16.85c0.28,0,0.5-0.22,0.5-0.5V4.66
				C18.93,4.52,18.87,4.39,18.77,4.29z M13.01,9.67h-6v-1h6V9.67z"/>
		</g>
		<g id="패스_321">
			<path class="st0" d="M19.49,5.16H0.51v-5.49h18.97V5.16z"/>
		</g>
	</g>
</g>
</svg>
