<?xml version="1.0" encoding="utf-8"?>
<!-- Generator: Adobe Illustrator 26.3.1, SVG Export Plug-In . SVG Version: 6.00 Build 0)  -->
<svg version="1.1" id="Layer_1" xmlns="http://www.w3.org/2000/svg" xmlns:xlink="http://www.w3.org/1999/xlink" x="0px" y="0px"
	 viewBox="0 0 30 32.5" style="enable-background:new 0 0 30 32.5;" xml:space="preserve">
<style type="text/css">
	.st0{fill:#29ABE2;}
</style>
<path id="패스_721" class="st0" d="M16.25,32.49C7.27,32.49,0,25.22,0,16.25S7.27,0,16.25,0c5.1-0.1,9.91,2.31,12.89,6.45
	C29.69,7.17,30,8.06,30,8.98c0.05,2.27-1.74,4.15-4.01,4.2c-0.07,0-0.13,0-0.2,0c-1.31,0.05-2.56-0.55-3.34-1.6
	c-1.41-2.03-3.74-3.22-6.21-3.17c-4.33-0.09-7.91,3.35-8,7.68c-0.09,4.33,3.35,7.91,7.68,8c0.11,0,0.21,0,0.32,0
	c2.45,0.05,4.78-1.11,6.21-3.1c0.76-1.09,2.01-1.72,3.34-1.67c2.31-0.01,4.2,1.86,4.2,4.18c0,0.92-0.3,1.82-0.86,2.56
	C26.16,30.18,21.34,32.59,16.25,32.49z"/>
</svg>
