<?xml version="1.0" encoding="utf-8"?>
<!-- Generator: Adobe Illustrator 26.2.1, SVG Export Plug-In . SVG Version: 6.00 Build 0)  -->
<svg version="1.1" id="Layer_1" xmlns="http://www.w3.org/2000/svg" xmlns:xlink="http://www.w3.org/1999/xlink" x="0px" y="0px"
	 viewBox="0 0 34.5 32.64" style="enable-background:new 0 0 34.5 32.64;" xml:space="preserve">
<style type="text/css">
	.st0{fill:#FFFFFF;}
</style>
<g>
	<path class="st0" d="M30.2,20.82H9.1c-0.33,0-0.63-0.22-0.72-0.54L3,1.5H0.75C0.34,1.5,0,1.16,0,0.75S0.34,0,0.75,0h2.82
		C3.9,0,4.2,0.22,4.29,0.54l1.75,6.11c0.02,0,0.04,0,0.05,0l27.66,0.18c0.23,0,0.45,0.11,0.59,0.3s0.19,0.43,0.12,0.66l-3.55,12.48
		C30.83,20.6,30.54,20.82,30.2,20.82z M9.67,19.32h19.97l3.12-10.99L6.47,8.16L9.67,19.32z"/>
	<path class="st0" d="M11.74,32.64c-2.63,0-4.77-2.14-4.77-4.77c0-2.63,2.14-4.77,4.77-4.77s4.77,2.14,4.77,4.77
		C16.51,30.5,14.37,32.64,11.74,32.64z M11.74,24.6c-1.8,0-3.27,1.47-3.27,3.27s1.47,3.27,3.27,3.27s3.27-1.47,3.27-3.27
		S13.54,24.6,11.74,24.6z"/>
	<path class="st0" d="M27.29,32.64c-2.63,0-4.77-2.14-4.77-4.77c0-2.63,2.14-4.77,4.77-4.77c2.63,0,4.77,2.14,4.77,4.77
		C32.06,30.5,29.92,32.64,27.29,32.64z M27.29,24.6c-1.8,0-3.27,1.47-3.27,3.27s1.47,3.27,3.27,3.27c1.8,0,3.27-1.47,3.27-3.27
		S29.09,24.6,27.29,24.6z"/>
	<path class="st0" d="M12.76,24.6c-0.06,0-0.12-0.01-0.18-0.02c-0.4-0.1-0.65-0.51-0.54-0.91l0.95-3.78c0.1-0.4,0.51-0.65,0.91-0.54
		c0.4,0.1,0.65,0.51,0.54,0.91l-0.95,3.78C13.4,24.38,13.09,24.6,12.76,24.6z"/>
	<path class="st0" d="M23.27,28.62h-7.51c-0.41,0-0.75-0.34-0.75-0.75s0.34-0.75,0.75-0.75h7.51c0.41,0,0.75,0.34,0.75,0.75
		S23.68,28.62,23.27,28.62z"/>
</g>
</svg>
