<?xml version="1.0" encoding="utf-8"?>
<!-- Generator: Adobe Illustrator 26.2.1, SVG Export Plug-In . SVG Version: 6.00 Build 0)  -->
<svg version="1.1" id="Layer_1" xmlns="http://www.w3.org/2000/svg" xmlns:xlink="http://www.w3.org/1999/xlink" x="0px" y="0px"
	 viewBox="0 0 50.17 18.92" style="enable-background:new 0 0 50.17 18.92;" xml:space="preserve">
<style type="text/css">
	.st0{enable-background:new    ;}
	.st1{fill:#00A99D;}
</style>
<g class="st0">
	<path class="st1" d="M7.78,2.7V8h2.52v2.6H0V0.1h10.3v2.6H7.78z M14.7,18.92h-3.02l0.78-4.2H0.84V12.3h11.74V0h2.88v4.22h2.04v2.6
		h-2.04v7.9L14.7,18.92z M4.92,2.7H2.9V8h2.02V2.7z"/>
</g>
<g class="st0">
	<path d="M19.78,3.14h8.88v2.06h-1.31v10.85h1.31v2.06h-8.88v-2.06h1.23V5.21h-1.23V3.14z M23.32,16.06h1.74V5.21h-1.74V16.06z
		 M32.67,18.2h-2.24V3.06h2.24V18.2z"/>
	<path d="M40.58,3.14l3.2,7.25h-2.61l-1.92-4.56l-1.9,4.56h-2.61l3.2-7.25H40.58z M45.83,4.28V3.06h2.19v12.42h-9.88v0.85h9.88v1.87
		H35.89v-4.42h9.88v-0.82h-9.88v-1.84h9.94V9.02H43.9V7.21h1.94V6.09H43.9V4.28H45.83z"/>
</g>
</svg>
