<?xml version="1.0" encoding="utf-8"?>
<!-- Generator: Adobe Illustrator 26.2.1, SVG Export Plug-In . SVG Version: 6.00 Build 0)  -->
<svg version="1.1" id="レイヤー_1" xmlns="http://www.w3.org/2000/svg" xmlns:xlink="http://www.w3.org/1999/xlink" x="0px"
	 y="0px" viewBox="0 0 95 95" style="enable-background:new 0 0 95 95;" xml:space="preserve">
<style type="text/css">
	.st0{fill:#29ABE2;}
	.st1{fill:#474747;}
</style>
<g>
	<g>
		<g>
			<path class="st0" d="M51.13,44.08c-1.83,0-3.26-1.93-3.26-4.4c0-2.47,1.43-4.41,3.26-4.41c1.83,0,3.27,1.93,3.27,4.41
				C54.4,42.15,52.97,44.08,51.13,44.08z M51.13,36.62c-1.04,0-1.92,1.4-1.92,3.06c0,1.66,0.88,3.06,1.92,3.06
				c1.04,0,1.92-1.4,1.92-3.06C53.06,38.02,52.18,36.62,51.13,36.62z"/>
		</g>
		<g>
			<path class="st0" d="M58.1,47.82c-1.57,0-2.81-1.65-2.81-3.74c0-2.1,1.23-3.74,2.81-3.74c1.57,0,2.81,1.65,2.81,3.74
				C60.9,46.17,59.67,47.82,58.1,47.82z M58.1,41.67c-0.79,0-1.46,1.1-1.46,2.4c0,1.3,0.67,2.4,1.46,2.4c0.79,0,1.46-1.1,1.46-2.4
				C59.56,42.77,58.89,41.67,58.1,41.67z"/>
		</g>
		<g>
			<path class="st0" d="M36.9,47.82c-1.57,0-2.81-1.65-2.81-3.74c0-2.1,1.23-3.74,2.81-3.74c1.57,0,2.81,1.65,2.81,3.74
				C39.71,46.17,38.47,47.82,36.9,47.82z M36.9,41.67c-0.79,0-1.46,1.1-1.46,2.4c0,1.3,0.67,2.4,1.46,2.4c0.79,0,1.46-1.1,1.46-2.4
				C38.36,42.77,37.69,41.67,36.9,41.67z"/>
		</g>
		<g>
			<path class="st0" d="M43.36,44.08c-1.83,0-3.26-1.93-3.26-4.4c0-2.47,1.43-4.41,3.26-4.41c1.83,0,3.27,1.93,3.27,4.41
				C46.63,42.15,45.19,44.08,43.36,44.08z M43.36,36.62c-1.04,0-1.92,1.4-1.92,3.06c0,1.66,0.88,3.06,1.92,3.06
				c1.04,0,1.92-1.4,1.92-3.06C45.28,38.02,44.4,36.62,43.36,36.62z"/>
		</g>
		<g>
			<g>
				<path class="st0" d="M51.74,59.73c-2.31,0-3.52-0.97-4.23-2.11c-0.7,1.1-1.92,2.11-4.25,2.11c-2.99,0-5.24-2.29-5.24-5.33
					c0-3.34,2.58-5.9,5-8.03c2.49-2.2,6.25-2.19,8.74,0.02c3.01,2.68,5.32,4.93,5.32,7.58C57.07,57.95,54.39,59.73,51.74,59.73z
					 M47.51,55.4c0.28,0,0.53,0.17,0.63,0.44c0.57,1.53,1.4,2.55,3.6,2.55c1.93,0,3.99-1.16,3.99-4.42c0-2.09-2.2-4.22-4.86-6.58
					c-1.98-1.76-4.98-1.77-6.96-0.02c-2.2,1.94-4.54,4.25-4.54,7.03c0,2.31,1.64,3.99,3.9,3.99c2.29,0,3.08-1.15,3.58-2.41
					l0.04-0.12c0.09-0.27,0.34-0.46,0.62-0.46C47.5,55.4,47.5,55.4,47.51,55.4z"/>
			</g>
		</g>
	</g>
	<g>
		<path class="st1" d="M32.8,68.1c-3.25,0-5.9-2.65-5.9-5.9V32.8c0-3.25,2.65-5.9,5.9-5.9c0.37,0,0.67,0.3,0.67,0.67
			c0,0.37-0.3,0.67-0.67,0.67c-2.51,0-4.56,2.04-4.56,4.56v29.4c0,2.51,2.04,4.56,4.56,4.56c0.37,0,0.67,0.3,0.67,0.67
			S33.17,68.1,32.8,68.1z"/>
	</g>
	<g>
		<path class="st1" d="M62.2,68.1c-0.37,0-0.67-0.3-0.67-0.67s0.3-0.67,0.67-0.67c2.51,0,4.56-2.04,4.56-4.56V32.8
			c0-2.51-2.04-4.56-4.56-4.56c-0.37,0-0.67-0.3-0.67-0.67c0-0.37,0.3-0.67,0.67-0.67c3.25,0,5.9,2.65,5.9,5.9v29.4
			C68.1,65.45,65.45,68.1,62.2,68.1z"/>
	</g>
	<g>
		<path class="st1" d="M65.23,28.25c-0.02,0-0.04,0-0.05,0c-0.37-0.03-0.65-0.35-0.62-0.72l0.47-6.04H29.96l0.47,6.04
			c0.03,0.37-0.25,0.69-0.62,0.72c-0.36,0.02-0.69-0.25-0.72-0.62l-0.53-6.77c-0.01-0.19,0.05-0.37,0.18-0.51
			c0.13-0.14,0.31-0.22,0.49-0.22h36.53c0.19,0,0.37,0.08,0.49,0.22c0.13,0.14,0.19,0.32,0.18,0.51l-0.53,6.77
			C65.87,27.99,65.58,28.25,65.23,28.25z"/>
	</g>
	<g>
		<path class="st1" d="M65.76,74.86H29.24c-0.19,0-0.37-0.08-0.49-0.22c-0.13-0.14-0.19-0.32-0.18-0.51l0.53-6.76
			c0.03-0.37,0.36-0.64,0.72-0.62c0.37,0.03,0.65,0.35,0.62,0.72l-0.47,6.04h35.08l-0.47-6.04c-0.03-0.37,0.25-0.69,0.62-0.72
			c0.37-0.02,0.69,0.25,0.72,0.62l0.53,6.76c0.01,0.19-0.05,0.37-0.18,0.51C66.13,74.78,65.95,74.86,65.76,74.86z"/>
	</g>
	<g>
		<g>
			<path class="st1" d="M36.45,28.24h-1.68c-0.37,0-0.67-0.3-0.67-0.67c0-0.37,0.3-0.67,0.67-0.67h1.68c0.37,0,0.67,0.3,0.67,0.67
				C37.12,27.94,36.82,28.24,36.45,28.24z"/>
		</g>
		<g>
			<path class="st1" d="M55.4,28.24h-3.16c-0.37,0-0.67-0.3-0.67-0.67c0-0.37,0.3-0.67,0.67-0.67h3.16c0.37,0,0.67,0.3,0.67,0.67
				C56.07,27.94,55.77,28.24,55.4,28.24z M49.08,28.24h-3.16c-0.37,0-0.67-0.3-0.67-0.67c0-0.37,0.3-0.67,0.67-0.67h3.16
				c0.37,0,0.67,0.3,0.67,0.67C49.75,27.94,49.45,28.24,49.08,28.24z M42.76,28.24H39.6c-0.37,0-0.67-0.3-0.67-0.67
				c0-0.37,0.3-0.67,0.67-0.67h3.16c0.37,0,0.67,0.3,0.67,0.67C43.43,27.94,43.13,28.24,42.76,28.24z"/>
		</g>
		<g>
			<path class="st1" d="M60.23,28.24h-1.68c-0.37,0-0.67-0.3-0.67-0.67c0-0.37,0.3-0.67,0.67-0.67h1.68c0.37,0,0.67,0.3,0.67,0.67
				C60.9,27.94,60.6,28.24,60.23,28.24z"/>
		</g>
	</g>
	<g>
		<g>
			<path class="st1" d="M36.45,68.09h-1.68c-0.37,0-0.67-0.3-0.67-0.67c0-0.37,0.3-0.67,0.67-0.67h1.68c0.37,0,0.67,0.3,0.67,0.67
				C37.12,67.79,36.82,68.09,36.45,68.09z"/>
		</g>
		<g>
			<path class="st1" d="M55.4,68.09h-3.16c-0.37,0-0.67-0.3-0.67-0.67c0-0.37,0.3-0.67,0.67-0.67h3.16c0.37,0,0.67,0.3,0.67,0.67
				C56.07,67.79,55.77,68.09,55.4,68.09z M49.08,68.09h-3.16c-0.37,0-0.67-0.3-0.67-0.67c0-0.37,0.3-0.67,0.67-0.67h3.16
				c0.37,0,0.67,0.3,0.67,0.67C49.75,67.79,49.45,68.09,49.08,68.09z M42.76,68.09H39.6c-0.37,0-0.67-0.3-0.67-0.67
				c0-0.37,0.3-0.67,0.67-0.67h3.16c0.37,0,0.67,0.3,0.67,0.67C43.43,67.79,43.13,68.09,42.76,68.09z"/>
		</g>
		<g>
			<path class="st1" d="M60.23,68.09h-1.68c-0.37,0-0.67-0.3-0.67-0.67c0-0.37,0.3-0.67,0.67-0.67h1.68c0.37,0,0.67,0.3,0.67,0.67
				C60.9,67.79,60.6,68.09,60.23,68.09z"/>
		</g>
	</g>
</g>
</svg>
