<?xml version="1.0" encoding="utf-8"?>
<!-- Generator: Adobe Illustrator 26.2.1, SVG Export Plug-In . SVG Version: 6.00 Build 0)  -->
<svg version="1.1" id="レイヤー_1" xmlns="http://www.w3.org/2000/svg" xmlns:xlink="http://www.w3.org/1999/xlink" x="0px"
	 y="0px" viewBox="0 0 95 95" style="enable-background:new 0 0 95 95;" xml:space="preserve">
<style type="text/css">
	.st0{fill:#474747;stroke:#474747;stroke-width:0.25;stroke-miterlimit:10;}
	.st1{fill:#29ABE2;}
</style>
<g>
	<g>
		<path class="st0" d="M47.5,72.42c-13.74,0-24.92-11.18-24.92-24.92S33.76,22.58,47.5,22.58S72.42,33.76,72.42,47.5
			S61.24,72.42,47.5,72.42z M47.5,24C34.54,24,24,34.54,24,47.5S34.54,71,47.5,71C60.46,71,71,60.46,71,47.5S60.46,24,47.5,24z"/>
	</g>
	<g>
		<path class="st1" d="M31.75,66.58c-0.2,0-0.4-0.08-0.54-0.25c-0.26-0.3-0.22-0.75,0.08-1c5.22-4.48,8.21-10.98,8.21-17.83
			s-2.99-13.36-8.21-17.83c-0.3-0.26-0.33-0.7-0.08-1c0.26-0.3,0.7-0.33,1-0.08c5.53,4.75,8.7,11.64,8.7,18.91
			s-3.17,14.17-8.7,18.91C32.08,66.53,31.91,66.58,31.75,66.58z"/>
	</g>
	<g>
		<path class="st1" d="M63.25,66.58c-0.16,0-0.33-0.06-0.46-0.17c-5.53-4.75-8.7-11.64-8.7-18.91s3.17-14.17,8.7-18.91
			c0.3-0.26,0.75-0.22,1,0.08c0.26,0.3,0.22,0.75-0.08,1C58.5,34.14,55.5,40.64,55.5,47.5s2.99,13.36,8.21,17.83
			c0.3,0.26,0.33,0.7,0.08,1C63.65,66.5,63.45,66.58,63.25,66.58z"/>
	</g>
</g>
</svg>
