<?xml version="1.0" encoding="utf-8"?>
<!-- Generator: Adobe Illustrator 26.2.1, SVG Export Plug-In . SVG Version: 6.00 Build 0)  -->
<svg version="1.1" id="レイヤー_1" xmlns="http://www.w3.org/2000/svg" xmlns:xlink="http://www.w3.org/1999/xlink" x="0px"
	 y="0px" viewBox="0 0 95 95" style="enable-background:new 0 0 95 95;" xml:space="preserve">
<style type="text/css">
	.st0{fill:#FFFFFF;}
</style>
<g>
	<path class="st0" d="M74.48,47.09L49.67,26.05l-1.72-1.47c-0.26-0.22-0.64-0.22-0.9,0L20.52,47.09c-0.28,0.24-0.33,0.63-0.12,0.93
		l3.33,4.7c0.11,0.16,0.29,0.26,0.48,0.29c0.03,0,0.06,0,0.08,0c0.16,0,0.33-0.06,0.45-0.17l4.94-4.23v21.28
		c0,0.38,0.31,0.69,0.69,0.69h9.89c0.38,0,0.69-0.31,0.69-0.69V61c0-3.6,2.93-6.54,6.54-6.54s6.54,2.93,6.54,6.54v8.89
		c0,0.38,0.31,0.69,0.69,0.69h9.89c0.38,0,0.69-0.31,0.69-0.69V48.61l4.94,4.23c0.12,0.11,0.29,0.17,0.45,0.17c0.03,0,0.05,0,0.08,0
		c0.19-0.02,0.37-0.13,0.48-0.29l3.33-4.7C74.8,47.73,74.75,47.33,74.48,47.09z M47.5,53.08c-4.37,0-7.92,3.55-7.92,7.92v8.2h-8.51
		V47.42L47.5,33.33l16.43,14.09V69.2h-8.51V61C55.42,56.63,51.87,53.08,47.5,53.08z M47.05,31.89L24.43,51.3l-2.53-3.56L46.23,27.1
		l1.27-1.09l25.6,21.72l-2.53,3.56L47.95,31.89c-0.13-0.11-0.29-0.17-0.45-0.17C47.33,31.73,47.18,31.79,47.05,31.89z"/>
	<path class="st0" d="M56.93,50v-6.05c0-0.31-0.25-0.57-0.57-0.57H38.64c-0.31,0-0.57,0.25-0.57,0.57V50c0,0.31,0.25,0.57,0.57,0.57
		h17.72C56.67,50.57,56.93,50.31,56.93,50z M55.79,49.43H39.21v-4.91h16.58V49.43z"/>
</g>
</svg>
