<?xml version="1.0" encoding="utf-8"?>
<!-- Generator: Adobe Illustrator 26.2.1, SVG Export Plug-In . SVG Version: 6.00 Build 0)  -->
<svg version="1.1" id="レイヤー_1" xmlns="http://www.w3.org/2000/svg" xmlns:xlink="http://www.w3.org/1999/xlink" x="0px"
	 y="0px" viewBox="0 0 95 95" style="enable-background:new 0 0 95 95;" xml:space="preserve">
<style type="text/css">
	.st0{fill:#474747;stroke:#474747;stroke-width:0.25;stroke-miterlimit:10;}
	.st1{fill:#29ABE2;}
</style>
<g>
	<g>
		<g>
			<path class="st0" d="M64.62,70.46h-9.89c-0.31,0-0.57-0.25-0.57-0.57V61c0-3.67-2.99-6.66-6.66-6.66c-3.67,0-6.66,2.99-6.66,6.66
				v8.89c0,0.31-0.25,0.57-0.57,0.57h-9.89c-0.31,0-0.57-0.25-0.57-0.57V47.4c0-0.31,0.25-0.57,0.57-0.57
				c0.31,0,0.57,0.25,0.57,0.57v21.92h8.76V61c0-4.3,3.5-7.8,7.8-7.8c4.3,0,7.8,3.5,7.8,7.8v8.32h8.76V47.4
				c0-0.31,0.25-0.57,0.57-0.57c0.31,0,0.57,0.25,0.57,0.57v22.49C65.19,70.2,64.94,70.46,64.62,70.46z"/>
		</g>
	</g>
	<g>
		<path class="st0" d="M70.7,52.89c-0.13,0-0.27-0.05-0.37-0.14L47.5,33.16L24.67,52.75c-0.12,0.1-0.28,0.15-0.44,0.13
			c-0.16-0.02-0.3-0.1-0.39-0.24l-3.33-4.7c-0.17-0.24-0.13-0.57,0.1-0.76l26.53-22.51c0.21-0.18,0.52-0.18,0.74,0l1.72,1.47
			L74.4,47.19c0.22,0.19,0.27,0.52,0.1,0.76l-3.33,4.7c-0.09,0.13-0.24,0.22-0.39,0.24C70.75,52.89,70.72,52.89,70.7,52.89z
			 M47.5,31.85c0.13,0,0.26,0.05,0.37,0.14l22.73,19.5l2.67-3.77L47.5,25.85l-1.35,1.16L21.73,47.72l2.67,3.77l22.73-19.5
			C47.24,31.9,47.37,31.85,47.5,31.85z"/>
	</g>
	<g>
		<path class="st1" d="M56.36,50.57H38.64c-0.31,0-0.57-0.25-0.57-0.57v-6.05c0-0.31,0.25-0.57,0.57-0.57h17.72
			c0.31,0,0.57,0.25,0.57,0.57V50C56.93,50.31,56.67,50.57,56.36,50.57z M39.21,49.43h16.58v-4.91H39.21V49.43z"/>
	</g>
</g>
</svg>
