<?xml version="1.0" encoding="utf-8"?>
<!-- Generator: Adobe Illustrator 26.2.1, SVG Export Plug-In . SVG Version: 6.00 Build 0)  -->
<svg version="1.1" id="レイヤー_1" xmlns="http://www.w3.org/2000/svg" xmlns:xlink="http://www.w3.org/1999/xlink" x="0px"
	 y="0px" viewBox="0 0 95 95" style="enable-background:new 0 0 95 95;" xml:space="preserve">
<style type="text/css">
	.st0{fill:#474747;stroke:#474747;stroke-width:0.15;stroke-miterlimit:10;}
	.st1{fill:#29ABE2;}
	.st2{fill:#474747;}
</style>
<g>
	<g>
		<path class="st0" d="M61.41,59.16c-0.34,0-0.61-0.27-0.61-0.61c0-0.34,0.27-0.61,0.61-0.61c2.42,0,4.41-0.73,5.47-2.01
			c0.72-0.86,0.97-1.92,0.74-3.15L65.3,41.45c-0.38-2.05-2.1-3.75-4.38-4.35c-0.32-0.09-0.52-0.42-0.43-0.74
			c0.09-0.32,0.42-0.52,0.74-0.43c2.73,0.72,4.8,2.8,5.26,5.29l2.33,11.33c0.3,1.59-0.05,3.02-0.99,4.16
			C66.53,58.27,64.19,59.16,61.41,59.16z"/>
	</g>
	<g>
		<path class="st0" d="M33.59,59.16c-2.78,0-5.12-0.89-6.41-2.45c-0.95-1.14-1.29-2.57-1-4.15l2.33-11.35
			c0.6-3.22,3.71-5.56,7.4-5.56h10.34c0.34,0,0.61,0.27,0.61,0.61c0,0.34-0.27,0.61-0.61,0.61H35.92c-3.1,0-5.71,1.93-6.21,4.58
			l-2.33,11.35c-0.23,1.22,0.02,2.28,0.74,3.14c1.06,1.28,3.06,2.01,5.47,2.01c0.34,0,0.61,0.27,0.61,0.61
			C34.19,58.89,33.92,59.16,33.59,59.16z"/>
	</g>
	<g>
		<path class="st0" d="M59.71,66.75H35.17c-0.27,0-0.5-0.17-0.58-0.43l-1.08-3.43h-2.79c-3.34,0-6.12-1.03-7.62-2.83
			c-1.12-1.34-1.53-3.07-1.18-5l2.81-15.7c0.71-3.99,4.42-6.88,8.8-6.88h13.4c0.34,0,0.61,0.27,0.61,0.61
			c0,0.34-0.27,0.61-0.61,0.61h-13.4c-3.8,0-7,2.47-7.61,5.88l-2.81,15.7c-0.28,1.59,0.02,2.94,0.92,4c1.27,1.52,3.71,2.4,6.69,2.4
			h3.23c0.27,0,0.5,0.17,0.58,0.43l1.08,3.43h23.7l1.51-3.49c0.1-0.22,0.32-0.37,0.56-0.37h2.9c2.98,0,5.41-0.87,6.69-2.4
			c0.89-1.07,1.2-2.42,0.92-4l-2.81-15.7c-0.61-3.41-3.81-5.88-7.61-5.88h-1c-0.34,0-0.61-0.27-0.61-0.61
			c0-0.34,0.27-0.61,0.61-0.61h1c4.39,0,8.09,2.89,8.8,6.88l2.81,15.7c0.35,1.93-0.06,3.66-1.18,5c-1.51,1.8-4.28,2.83-7.62,2.83
			h-2.5l-1.51,3.49C60.17,66.61,59.95,66.75,59.71,66.75z"/>
	</g>
	<g>
		<g>
			<path class="st0" d="M38.51,51.06c-0.1,0-0.21-0.03-0.3-0.08c-0.29-0.17-0.39-0.54-0.22-0.83c0.8-1.38,2.28-2.23,3.87-2.23
				c1.59,0,3.07,0.86,3.87,2.23c0.17,0.29,0.07,0.66-0.22,0.83c-0.29,0.17-0.66,0.07-0.83-0.22c-0.58-1-1.66-1.63-2.82-1.63
				c-1.16,0-2.24,0.62-2.82,1.63C38.92,50.95,38.72,51.06,38.51,51.06z"/>
		</g>
		<g>
			<path class="st0" d="M50.79,54.92c-0.34,0-0.61-0.27-0.61-0.61c0-1.79-1.46-3.25-3.25-3.25c-1.79,0-3.25,1.46-3.25,3.25
				c0,0.34-0.27,0.61-0.61,0.61s-0.61-0.27-0.61-0.61c0-2.46,2-4.47,4.47-4.47c2.46,0,4.47,2,4.47,4.47
				C51.4,54.65,51.13,54.92,50.79,54.92z"/>
		</g>
		<g>
			<path class="st0" d="M40.57,54.92c-0.34,0-0.61-0.27-0.61-0.61c0-1.79-1.46-3.25-3.25-3.25c-1.79,0-3.25,1.46-3.25,3.25
				c0,0.34-0.27,0.61-0.61,0.61c-0.34,0-0.61-0.27-0.61-0.61c0-2.46,2-4.47,4.47-4.47c2.46,0,4.47,2,4.47,4.47
				C41.17,54.65,40.9,54.92,40.57,54.92z"/>
		</g>
	</g>
	<g>
		<path class="st0" d="M35.27,46.25c-1.06,0-1.92-0.86-1.92-1.93c0-1.06,0.86-1.93,1.92-1.93c1.06,0,1.93,0.86,1.93,1.93
			C37.2,45.38,36.34,46.25,35.27,46.25z M35.27,43.61c-0.39,0-0.71,0.32-0.71,0.71c0,0.39,0.32,0.71,0.71,0.71
			c0.39,0,0.71-0.32,0.71-0.71C35.98,43.93,35.66,43.61,35.27,43.61z"/>
	</g>
	<g>
		<path class="st0" d="M61.6,54.5c-1.06,0-1.93-0.86-1.93-1.93s0.86-1.93,1.93-1.93c1.06,0,1.93,0.86,1.93,1.93
			S62.66,54.5,61.6,54.5z M61.6,51.86c-0.39,0-0.71,0.32-0.71,0.71c0,0.39,0.32,0.71,0.71,0.71c0.39,0,0.71-0.32,0.71-0.71
			C62.31,52.18,61.99,51.86,61.6,51.86z"/>
	</g>
	<g>
		<path class="st0" d="M65.14,72.62H29.89c-2.14,0-4.02-1.52-4.47-3.61l-1.59-8.04c-0.06-0.33,0.15-0.65,0.48-0.71
			c0.33-0.07,0.65,0.15,0.71,0.48l1.59,8.04c0.32,1.53,1.7,2.64,3.27,2.64h35.24c1.58,0,2.93-1.08,3.27-2.63l1.66-8.06
			c0.07-0.33,0.39-0.54,0.72-0.47c0.33,0.07,0.54,0.39,0.47,0.72l-1.66,8.07C69.13,71.15,67.29,72.62,65.14,72.62z"/>
	</g>
	<g>
		<path class="st0" d="M61.6,62.9H33.96c-0.34,0-0.61-0.27-0.61-0.61c0-0.34,0.27-0.61,0.61-0.61H61.6c0.34,0,0.61,0.27,0.61,0.61
			C62.21,62.62,61.94,62.9,61.6,62.9z"/>
	</g>
</g>
<g>
	<g>
		<path class="st1" d="M61.38,44.18c-0.31,0-0.57-0.23-0.6-0.54L59.63,33.3c0-0.02,0-0.04,0-0.07c0-1.24-1.01-2.26-2.26-2.26h-1.25
			c-0.34,0-0.61-0.27-0.61-0.61v-7.63c0-1-0.81-1.82-1.82-1.82c-1,0-1.82,0.81-1.82,1.82v7.63c0,0.34-0.27,0.61-0.61,0.61h-1.25
			c-1.24,0-2.26,1.01-2.26,2.26c0,0.02,0,0.04,0,0.07l-1.15,10.34c-0.04,0.33-0.32,0.57-0.67,0.54c-0.33-0.04-0.57-0.34-0.54-0.67
			l1.14-10.31c0.02-1.9,1.57-3.44,3.47-3.44h0.64v-7.02c0-1.67,1.36-3.03,3.03-3.03s3.03,1.36,3.03,3.03v7.02h0.64
			c1.9,0,3.46,1.54,3.47,3.44l1.14,10.31c0.04,0.33-0.2,0.63-0.54,0.67C61.42,44.18,61.4,44.18,61.38,44.18z"/>
	</g>
	<g>
		<path class="st2" d="M57.32,44.18H42.88c-0.34,0-0.61-0.27-0.61-0.61c0-0.34,0.27-0.61,0.61-0.61h14.44
			c0.34,0,0.61,0.27,0.61,0.61C57.93,43.91,57.66,44.18,57.32,44.18z"/>
	</g>
</g>
</svg>
