<?xml version="1.0" encoding="utf-8"?>
<!-- Generator: Adobe Illustrator 26.2.1, SVG Export Plug-In . SVG Version: 6.00 Build 0)  -->
<svg version="1.1" id="レイヤー_1" xmlns="http://www.w3.org/2000/svg" xmlns:xlink="http://www.w3.org/1999/xlink" x="0px"
	 y="0px" viewBox="0 0 95 95" style="enable-background:new 0 0 95 95;" xml:space="preserve">
<style type="text/css">
	.st0{fill:#FFFFFF;}
</style>
<g>
	<path class="st0" d="M46.96,34.04l-1.52,0v-4.77c0-0.36-0.29-0.65-0.65-0.65h-5.07V24.7h4.43c0.36,0,0.65-0.29,0.65-0.65v-5.17
		c0-0.36-0.29-0.65-0.65-0.65h-9.93c-0.36,0-0.65,0.29-0.65,0.65v9.74H28.7c-0.36,0-0.65,0.29-0.65,0.65v4.76l-1.54,0
		c-0.17,0-0.34,0.07-0.46,0.19c-0.12,0.12-0.19,0.29-0.19,0.46v36.68c0,0.36,0.29,0.65,0.65,0.65h20.45c0.36,0,0.65-0.29,0.65-0.65
		V34.7C47.61,34.33,47.32,34.04,46.96,34.04z M34.87,28.61v-9.08h8.62v3.87h-4.43c-0.36,0-0.65,0.29-0.65,0.65v4.56H34.87z
		 M29.36,34.03v-4.11h14.78v4.12L29.36,34.03z M27.16,37.34v-2l1.54,0.01c0.03,0,0.05-0.01,0.05-0.01l17.56,0.01v1.99H27.16z
		 M27.16,70.71V38.64h19.15v32.07H27.16z"/>
	<path class="st0" d="M71.24,53.08H50.78c-0.36,0-0.65,0.29-0.65,0.65v17.63c0,0.36,0.29,0.65,0.65,0.65h20.45
		c0.36,0,0.65-0.29,0.65-0.65V53.73C71.89,53.37,71.6,53.08,71.24,53.08z M51.44,70.71V54.39h19.15v16.33H51.44z"/>
	<path class="st0" d="M54.35,57.41c-0.36,0-0.65,0.29-0.65,0.65v4.65c0,0.36,0.29,0.65,0.65,0.65c0.36,0,0.65-0.29,0.65-0.65v-4.65
		C55.01,57.7,54.71,57.41,54.35,57.41z"/>
	<path class="st0" d="M54.35,64.91c-0.36,0-0.65,0.29-0.65,0.65v1.68c0,0.36,0.29,0.65,0.65,0.65c0.36,0,0.65-0.29,0.65-0.65v-1.68
		C55.01,65.2,54.71,64.91,54.35,64.91z"/>
	<path class="st0" d="M42.12,60.38H31.37c-0.36,0-0.65,0.29-0.65,0.65c0,0.36,0.29,0.65,0.65,0.65h10.74c0.36,0,0.65-0.29,0.65-0.65
		C42.77,60.67,42.48,60.38,42.12,60.38z"/>
	<path class="st0" d="M41.06,64.07h-8.63c-0.36,0-0.65,0.29-0.65,0.65s0.29,0.65,0.65,0.65h8.63c0.36,0,0.65-0.29,0.65-0.65
		S41.42,64.07,41.06,64.07z"/>
	<path class="st0" d="M38.24,48.34c0.79,0,1.42-0.83,1.42-1.88s-0.62-1.88-1.42-1.88c-0.79,0-1.41,0.83-1.41,1.88
		S37.45,48.34,38.24,48.34z M38.24,45.26c0.39,0,0.72,0.56,0.72,1.19s-0.34,1.19-0.72,1.19s-0.72-0.56-0.72-1.19
		S37.86,45.26,38.24,45.26z"/>
	<path class="st0" d="M41.11,49.88c0.69,0,1.23-0.71,1.23-1.61s-0.54-1.61-1.23-1.61c-0.69,0-1.23,0.71-1.23,1.61
		S40.42,49.88,41.11,49.88z M41.11,47.34c0.28,0,0.53,0.43,0.53,0.92c0,0.49-0.25,0.92-0.53,0.92s-0.53-0.43-0.53-0.92
		C40.58,47.77,40.83,47.34,41.11,47.34z"/>
	<path class="st0" d="M32.38,49.88c0.69,0,1.23-0.71,1.23-1.61s-0.54-1.61-1.23-1.61c-0.69,0-1.23,0.71-1.23,1.61
		S31.69,49.88,32.38,49.88z M32.38,47.34c0.28,0,0.53,0.43,0.53,0.92c0,0.49-0.25,0.92-0.53,0.92c-0.28,0-0.53-0.43-0.53-0.92
		C31.84,47.77,32.09,47.34,32.38,47.34z"/>
	<path class="st0" d="M35.04,48.34c0.79,0,1.41-0.83,1.41-1.88s-0.62-1.88-1.41-1.88c-0.79,0-1.41,0.83-1.41,1.88
		S34.25,48.34,35.04,48.34z M35.04,47.65c-0.38,0-0.72-0.56-0.72-1.19s0.34-1.19,0.72-1.19s0.72,0.56,0.72,1.19
		S35.42,47.65,35.04,47.65z"/>
	<path class="st0" d="M32.77,52.52c0,1.29,0.96,2.27,2.23,2.27c0.78,0,1.36-0.27,1.75-0.81c0.38,0.55,0.95,0.81,1.74,0.81
		c1.13,0,2.27-0.76,2.27-2.44c0-1.12-0.96-2.06-2.21-3.18c-0.51-0.45-1.17-0.7-1.85-0.7c-0.68,0-1.33,0.25-1.84,0.7
		C33.84,50.05,32.77,51.11,32.77,52.52z M36.69,49.15c0.51,0,1.01,0.19,1.39,0.53c1.08,0.96,1.98,1.83,1.98,2.66
		c0,1.29-0.81,1.75-1.57,1.75c-0.87,0-1.19-0.39-1.42-1.01c-0.05-0.13-0.18-0.22-0.32-0.22h-0.01h0c-0.15,0-0.28,0.1-0.34,0.28
		c-0.2,0.49-0.5,0.95-1.41,0.95c-0.89,0-1.54-0.66-1.54-1.57c0-1.12,0.95-2.05,1.85-2.84C35.69,49.34,36.18,49.15,36.69,49.15z"/>
</g>
</svg>
