<?xml version="1.0" encoding="UTF-8"?><svg id="Layer_2" xmlns="http://www.w3.org/2000/svg" viewBox="0 0 19.31 19.31"><defs><style>.cls-1{fill:#fff;}</style></defs><g id="Layer_1-2"><path class="cls-1" d="M19.31,18.64l-6.35-6.35c1.19-1.35,1.84-3.07,1.84-4.89,0-1.98-.77-3.84-2.17-5.23C9.75-.72,5.05-.72,2.17,2.16,.77,3.56,0,5.42,0,7.4s.77,3.84,2.17,5.23c1.4,1.4,3.26,2.17,5.23,2.17,1.82,0,3.53-.65,4.89-1.84l6.35,6.35,.67-.67ZM2.84,11.96c-1.22-1.22-1.89-2.84-1.89-4.56s.67-3.34,1.89-4.56C5.35,.32,9.45,.32,11.97,2.83c1.22,1.22,1.89,2.84,1.89,4.56s-.67,3.34-1.89,4.56c-1.22,1.22-2.84,1.89-4.56,1.89s-3.34-.67-4.56-1.89Z"/></g></svg>