<?xml version="1.0" encoding="utf-8"?>
<!-- Generator: Adobe Illustrator 26.3.1, SVG Export Plug-In . SVG Version: 6.00 Build 0)  -->
<svg version="1.1" id="Layer_1" xmlns="http://www.w3.org/2000/svg" xmlns:xlink="http://www.w3.org/1999/xlink" x="0px" y="0px"
	 viewBox="0 0 29.99 45" style="enable-background:new 0 0 29.99 45;" xml:space="preserve">
<style type="text/css">
	.st0{fill:#29ABE2;}
</style>
<path id="패스_308" class="st0" d="M14.99,0.02C6.71,0.03,0,6.74,0,15.01V45c0,0,7.5-0.5,7.5-7.5v-9.53
	c7.17,4.14,16.34,1.69,20.48-5.48c4.14-7.17,1.69-16.34-5.48-20.48C20.22,0.69,17.63,0,14.99,0L14.99,0.02z M14.99,22.53
	c-4.14,0-7.5-3.36-7.5-7.5s3.36-7.5,7.5-7.5c4.14,0,7.5,3.36,7.5,7.5c0,0,0,0,0,0c-0.02,4.13-3.37,7.46-7.5,7.46V22.53z"/>
</svg>
