<?xml version="1.0" encoding="utf-8"?>
<!-- Generator: Adobe Illustrator 26.2.1, SVG Export Plug-In . SVG Version: 6.00 Build 0)  -->
<svg version="1.1" id="レイヤー_1" xmlns="http://www.w3.org/2000/svg" xmlns:xlink="http://www.w3.org/1999/xlink" x="0px"
	 y="0px" viewBox="0 0 95 95" style="enable-background:new 0 0 95 95;" xml:space="preserve">
<style type="text/css">
	.st0{fill:#FFFFFF;}
</style>
<path class="st0" d="M47.5,22.46c-13.81,0-25.04,11.23-25.04,25.04S33.69,72.54,47.5,72.54S72.54,61.31,72.54,47.5
	S61.31,22.46,47.5,22.46z M63.16,64.83c-4.87-4.45-7.66-10.72-7.66-17.33c0-6.61,2.78-12.88,7.66-17.33
	c4.73,4.28,7.71,10.46,7.71,17.33S67.89,60.55,63.16,64.83z M39.5,47.5c0,6.61-2.78,12.88-7.66,17.33
	c-4.73-4.28-7.71-10.46-7.71-17.33c0-6.87,2.98-13.05,7.71-17.33C36.71,34.62,39.5,40.89,39.5,47.5z M40.92,47.5
	c0-6.95-2.9-13.54-7.98-18.26c4-3.2,9.06-5.11,14.57-5.11c5.5,0,10.57,1.92,14.56,5.11c-5.08,4.71-7.98,11.31-7.98,18.26
	c0,6.95,2.9,13.54,7.98,18.26c-4,3.2-9.06,5.11-14.56,5.11c-5.5,0-10.57-1.92-14.57-5.11C38.02,61.04,40.92,54.45,40.92,47.5z"/>
</svg>
