<?xml version="1.0" encoding="utf-8"?>
<!-- Generator: Adobe Illustrator 26.2.1, SVG Export Plug-In . SVG Version: 6.00 Build 0)  -->
<svg version="1.1" id="レイヤー_1" xmlns="http://www.w3.org/2000/svg" xmlns:xlink="http://www.w3.org/1999/xlink" x="0px"
	 y="0px" viewBox="0 0 95 95" style="enable-background:new 0 0 95 95;" xml:space="preserve">
<style type="text/css">
	.st0{fill:#FFFFFF;}
</style>
<g>
	<path class="st0" d="M70.38,52.55c0-4.04-3.29-7.33-7.33-7.33s-7.33,3.29-7.33,7.33c0,3.78,2.88,6.9,6.56,7.29l-0.03,3.34
		c0,0.03,0,0.06,0,0.09c0,0.04,0.44,4.56-2.3,7.61c-1.7,1.89-4.29,2.85-7.7,2.85c-3.8,0-6.7-0.98-8.63-2.92
		c-2.43-2.45-2.46-5.62-2.46-5.76V51.73c4.32-0.14,7.69-1.44,10-3.88c3.54-3.75,3.26-8.81,3.26-8.85l0-10.74
		c0.19-1.12-0.11-3.15-2.26-3.95c-0.21-1.36-1.38-2.4-2.8-2.4c-1.57,0-2.84,1.28-2.84,2.84s1.27,2.84,2.84,2.84
		c1.15,0,2.14-0.69,2.59-1.68c1.14,0.65,0.96,1.97,0.93,2.13c-0.01,0.05-0.01,0.09-0.01,0.14l0,10.87c0,0.04,0.23,4.49-2.84,7.74
		c-2.14,2.27-5.39,3.42-9.65,3.42c-5.47,0-9.33-1.87-11.49-5.56c-1.62-2.77-1.65-5.62-1.65-5.65V28.17c0-0.18,0.07-1.62,1.33-2.29
		c0.44,1,1.44,1.7,2.6,1.7c1.57,0,2.84-1.27,2.84-2.84s-1.27-2.84-2.84-2.84c-1.41,0-2.57,1.03-2.79,2.38
		c-2.13,0.78-2.7,2.87-2.69,3.9v10.82c0,0.21,0.02,5.15,3.72,8.86c2.43,2.44,5.87,3.73,10.19,3.87v13.32c0,0.16-0.01,3.9,2.9,6.84
		c2.22,2.25,5.5,3.39,9.74,3.39c3.87,0,6.85-1.13,8.85-3.37c3.1-3.44,2.75-8.23,2.7-8.75l0.03-3.32
		C67.5,59.45,70.38,56.33,70.38,52.55z M57.26,52.55c0-3.19,2.59-5.78,5.78-5.78s5.78,2.59,5.78,5.78s-2.59,5.78-5.78,5.78
		S57.26,55.74,57.26,52.55z M49.35,26.32c-0.88,0-1.59-0.71-1.59-1.59c0-0.88,0.71-1.59,1.59-1.59s1.59,0.71,1.59,1.59
		C50.94,25.61,50.23,26.32,49.35,26.32z M31.16,23.15c0.88,0,1.59,0.71,1.59,1.59c0,0.88-0.71,1.59-1.59,1.59s-1.59-0.71-1.59-1.59
		C29.57,23.86,30.29,23.15,31.16,23.15z"/>
	<path class="st0" d="M66.05,52.55c0-1.66-1.35-3.01-3.01-3.01c-1.66,0-3.01,1.35-3.01,3.01c0,1.66,1.35,3.01,3.01,3.01
		C64.7,55.56,66.05,54.21,66.05,52.55z M64.5,52.55c0,0.8-0.65,1.45-1.46,1.45s-1.46-0.65-1.46-1.45c0-0.8,0.65-1.46,1.46-1.46
		S64.5,51.75,64.5,52.55z"/>
</g>
</svg>
