<?xml version="1.0" encoding="utf-8"?>
<!-- Generator: Adobe Illustrator 26.2.1, SVG Export Plug-In . SVG Version: 6.00 Build 0)  -->
<svg version="1.1" id="レイヤー_1" xmlns="http://www.w3.org/2000/svg" xmlns:xlink="http://www.w3.org/1999/xlink" x="0px"
	 y="0px" viewBox="0 0 95 95" style="enable-background:new 0 0 95 95;" xml:space="preserve">
<style type="text/css">
	.st0{fill:#FFFFFF;}
</style>
<g>
	<path class="st0" d="M46.83,28.64c-1.72-0.63-3.62-0.41-5.36,0.62c-1.7,1-3.04,2.66-3.77,4.67c-0.73,2.01-0.78,4.14-0.13,6
		c0.23,0.67,0.55,1.27,0.94,1.81c-0.39,0.46-1.43,1.7-2.78,3.33c-1.36-1.64-2.42-2.9-2.78-3.33c0.37-0.52,0.68-1.1,0.92-1.75
		c0.67-1.88,0.64-4.03-0.1-6.05c-0.74-2.03-2.1-3.69-3.82-4.69c-1.73-1-3.62-1.21-5.31-0.59c-1.7,0.62-3,2-3.68,3.88
		c-0.67,1.88-0.64,4.03,0.11,6.05c1.16,3.18,3.92,5.41,6.79,5.59l4.14,5.44c-2.81,3.45-5.65,7.04-6.68,8.65
		c-2.35,3.7-0.98,9.13-0.92,9.36c0.06,0.24,0.26,0.44,0.51,0.49c0.04,0.01,0.09,0.01,0.13,0.01c0.21,0,0.41-0.1,0.53-0.26
		l10.16-13.33l10.16,13.33c0.13,0.17,0.33,0.26,0.53,0.26c0.05,0,0.09,0,0.13-0.01c0.25-0.05,0.45-0.24,0.51-0.49
		c0.06-0.23,1.44-5.66-0.92-9.36c-0.86-1.36-3.12-4.28-6.68-8.65l4.14-5.44c2.87-0.18,5.63-2.42,6.79-5.59
		c0.73-2.01,0.78-4.14,0.13-6C49.86,30.67,48.55,29.27,46.83,28.64z M30.18,43.85c0.69-0.25,1.32-0.64,1.86-1.13
		c0.47,0.56,1.51,1.81,2.81,3.37c-0.64,0.77-1.32,1.59-2.01,2.44l-3.42-4.49C29.69,44,29.94,43.94,30.18,43.85z M29.73,42.6
		c-2.81,1.03-6.14-0.99-7.42-4.49c-0.62-1.7-0.67-3.49-0.14-5.04c0.53-1.55,1.56-2.68,2.92-3.18c2.81-1.03,6.14,0.99,7.42,4.49
		c0.62,1.7,0.67,3.49,0.14,5.04C32.12,40.98,31.08,42.11,29.73,42.6z M41.27,43.85c0.25,0.09,0.5,0.15,0.75,0.2l-16.6,21.79
		c-0.22-1.69-0.36-4.71,1.01-6.87c1.98-3.12,11.26-14.21,12.97-16.24C39.95,43.22,40.57,43.6,41.27,43.85z M38.82,39.48
		c-0.55-1.57-0.5-3.38,0.12-5.1s1.76-3.13,3.2-3.98c0.87-0.51,1.8-0.78,2.7-0.78c0.53,0,1.04,0.09,1.53,0.27
		c1.34,0.49,2.37,1.6,2.9,3.12c0.55,1.57,0.5,3.38-0.12,5.1c-1.28,3.5-4.62,5.52-7.42,4.49C40.39,42.11,39.35,41.01,38.82,39.48z
		 M38.63,50.7c3.36,4.14,5.57,7,6.38,8.28c1.37,2.16,1.23,5.18,1.01,6.87l-9.46-12.43L38.63,50.7z"/>
	<path class="st0" d="M43.63,40.8c0.66,0,1.33-0.19,1.96-0.56c0.96-0.57,1.73-1.51,2.14-2.65c0.42-1.14,0.44-2.35,0.07-3.41
		c-0.39-1.11-1.15-1.92-2.16-2.29c-2.03-0.74-4.39,0.61-5.27,3c-0.42,1.14-0.44,2.35-0.07,3.41c0.39,1.11,1.15,1.92,2.16,2.28
		C42.83,40.73,43.23,40.8,43.63,40.8z M41.62,35.36c0.5-1.37,1.67-2.33,2.85-2.33c0.25,0,0.49,0.04,0.71,0.12
		c0.63,0.23,1.11,0.75,1.36,1.47c0.27,0.77,0.25,1.66-0.07,2.51s-0.87,1.55-1.57,1.96c-0.66,0.39-1.37,0.48-1.99,0.25
		c-0.62-0.23-1.11-0.75-1.36-1.47C41.29,37.1,41.31,36.21,41.62,35.36z"/>
	<path class="st0" d="M28.94,32.25c-1.01-0.59-2.12-0.72-3.13-0.35c-1,0.37-1.77,1.18-2.16,2.29c-0.37,1.06-0.34,2.27,0.07,3.41
		s1.18,2.08,2.14,2.65c0.62,0.37,1.29,0.56,1.96,0.56c0.4,0,0.79-0.07,1.17-0.21c1.01-0.37,1.77-1.18,2.16-2.28
		c0.37-1.06,0.34-2.27-0.07-3.41S29.9,32.83,28.94,32.25z M29.89,37.87c-0.25,0.72-0.74,1.25-1.36,1.47
		c-0.62,0.23-1.33,0.14-1.99-0.25c-0.7-0.41-1.26-1.11-1.57-1.96c-0.31-0.85-0.33-1.74-0.07-2.51c0.25-0.72,0.74-1.24,1.36-1.47
		c0.62-0.23,1.33-0.14,1.99,0.25c0.7,0.41,1.26,1.11,1.57,1.96C30.14,36.21,30.16,37.1,29.89,37.87z"/>
	<path class="st0" d="M35.72,50.69c0.59,0,1.07-0.48,1.07-1.07c0-0.59-0.48-1.07-1.07-1.07c-0.59,0-1.07,0.48-1.07,1.07
		C34.66,50.21,35.14,50.69,35.72,50.69z"/>
	<path class="st0" d="M72.73,62.81c-0.41,0-0.74,0.33-0.74,0.74c0,0.41,0.33,0.74,0.74,0.74c0.21,0,0.4,0.23,0.4,0.49
		s-0.19,0.49-0.4,0.49H58.18l-0.88-0.95c-0.17-0.25-4.22-6.12-4.22-15.64c0-9.32,3.81-16.61,4.23-17.39l0.87-0.94h14.55
		c0.21,0,0.4,0.23,0.4,0.49c0,0.41,0.33,0.74,0.74,0.74s0.74-0.33,0.74-0.74c0-1.09-0.84-1.97-1.88-1.97H57.85
		c-0.21,0-0.4,0.09-0.54,0.24l-1.14,1.23c-0.04,0.04-0.07,0.09-0.1,0.14c-0.18,0.32-4.47,8-4.47,18.2c0,10.27,4.33,16.29,4.52,16.54
		c0.02,0.02,0.03,0.04,0.05,0.06l1.14,1.23c0.14,0.15,0.34,0.24,0.54,0.24h14.87c1.04,0,1.88-0.89,1.88-1.97
		S73.76,62.81,72.73,62.81z"/>
	<path class="st0" d="M71.66,34.82c0.34,0,0.62-0.28,0.62-0.62c0-0.34-0.28-0.62-0.62-0.62H63.3c0.07-0.2,0.12-0.32,0.12-0.33
		c0.12-0.32-0.04-0.67-0.35-0.8c-0.32-0.12-0.67,0.04-0.8,0.35c-0.13,0.35-3.24,8.53-3.24,15.76c0,7.22,2.37,13.95,2.48,14.24
		c0.09,0.25,0.33,0.41,0.58,0.41c0.07,0,0.14-0.01,0.21-0.04c0.32-0.11,0.49-0.47,0.37-0.79c-0.01-0.02-0.18-0.51-0.42-1.33
		c0.06,0.02,0.12,0.04,0.19,0.04h9.23c0.34,0,0.62-0.28,0.62-0.62c0-0.34-0.28-0.62-0.62-0.62h-9.23c-0.19,0-0.35,0.09-0.46,0.22
		c-0.21-0.77-0.45-1.7-0.68-2.75h10.37c0.34,0,0.62-0.28,0.62-0.62c0-0.34-0.28-0.62-0.62-0.62H61.04c-0.16-0.81-0.3-1.68-0.42-2.58
		c0.09,0.04,0.18,0.08,0.28,0.08h10.76c0.34,0,0.62-0.28,0.62-0.62c0-0.34-0.28-0.62-0.62-0.62H60.9c-0.16,0-0.29,0.06-0.4,0.16
		c-0.14-1.28-0.23-2.62-0.23-3.96c0-0.9,0.05-1.82,0.14-2.74c0.11,0.16,0.29,0.26,0.49,0.26h10.76c0.34,0,0.62-0.28,0.62-0.62
		c0-0.34-0.28-0.62-0.62-0.62H60.9c-0.15,0-0.29,0.06-0.4,0.15c0.11-0.91,0.25-1.8,0.42-2.68h10.74c0.34,0,0.62-0.28,0.62-0.62
		S72,41.1,71.66,41.1H61.16c0.22-1.03,0.46-2.01,0.7-2.9c0.09,0.22,0.31,0.38,0.57,0.38h9.23c0.34,0,0.62-0.28,0.62-0.62
		c0-0.34-0.28-0.62-0.62-0.62h-9.23c-0.14,0-0.26,0.06-0.37,0.13c0.3-1.05,0.58-1.96,0.81-2.66H71.66z"/>
	<path class="st0" d="M71.66,48.62H60.9c-0.34,0-0.62,0.28-0.62,0.62c0,0.34,0.28,0.62,0.62,0.62h10.76c0.34,0,0.62-0.28,0.62-0.62
		C72.27,48.9,72,48.62,71.66,48.62z"/>
</g>
</svg>
