<?xml version="1.0" encoding="utf-8"?>
<!-- Generator: Adobe Illustrator 26.2.1, SVG Export Plug-In . SVG Version: 6.00 Build 0)  -->
<svg version="1.1" id="レイヤー_1" xmlns="http://www.w3.org/2000/svg" xmlns:xlink="http://www.w3.org/1999/xlink" x="0px"
	 y="0px" viewBox="0 0 95 95" style="enable-background:new 0 0 95 95;" xml:space="preserve">
<style type="text/css">
	.st0{fill:#474747;stroke:#474747;stroke-width:0.25;stroke-miterlimit:10;}
	.st1{fill:#29ABE2;}
</style>
<g>
	<path class="st0" d="M46.96,34.17l-1.65,0v-4.9c0-0.29-0.24-0.53-0.53-0.53h-5.2v-4.16h4.55c0.29,0,0.53-0.24,0.53-0.53v-5.17
		c0-0.29-0.24-0.53-0.53-0.53h-9.93c-0.29,0-0.53,0.24-0.53,0.53v9.86H28.7c-0.29,0-0.53,0.24-0.53,0.53v4.89l-1.67,0c0,0,0,0,0,0
		c-0.14,0-0.27,0.06-0.37,0.15c-0.1,0.1-0.15,0.23-0.15,0.37v36.68c0,0.29,0.24,0.53,0.53,0.53h20.45c0.29,0,0.53-0.24,0.53-0.53
		V34.69C47.49,34.4,47.25,34.17,46.96,34.17z M34.74,19.4h8.87v4.12h-4.55c-0.29,0-0.53,0.24-0.53,0.53v4.69h-3.79V19.4z
		 M29.23,29.8h15.03v4.37l-15.03-0.01V29.8z M28.66,35.21c0.02,0,0.03,0.01,0.05,0.01c0.02,0,0.03-0.01,0.05-0.01l16.03,0.01
		c0,0,0,0,0.01,0s0,0,0.01,0l1.64,0v2.24h-19.4v-2.25L28.66,35.21z M27.03,70.84V38.52h19.4v32.32H27.03z"/>
	<path class="st0" d="M71.24,53.21H50.78c-0.29,0-0.53,0.24-0.53,0.53v17.63c0,0.29,0.24,0.53,0.53,0.53h20.45
		c0.29,0,0.53-0.24,0.53-0.53V53.73C71.76,53.44,71.53,53.21,71.24,53.21z M70.71,70.84h-19.4V54.26h19.4V70.84z"/>
	<path class="st0" d="M54.35,63.24c0.29,0,0.53-0.24,0.53-0.53v-4.65c0-0.29-0.24-0.53-0.53-0.53c-0.29,0-0.53,0.24-0.53,0.53v4.65
		C53.82,63,54.06,63.24,54.35,63.24z"/>
	<path class="st0" d="M54.35,67.77c0.29,0,0.53-0.24,0.53-0.53v-1.68c0-0.29-0.24-0.53-0.53-0.53c-0.29,0-0.53,0.24-0.53,0.53v1.68
		C53.82,67.53,54.06,67.77,54.35,67.77z"/>
	<path class="st0" d="M42.12,60.5H31.37c-0.29,0-0.53,0.24-0.53,0.53c0,0.29,0.24,0.53,0.53,0.53h10.74c0.29,0,0.53-0.24,0.53-0.53
		C42.64,60.74,42.41,60.5,42.12,60.5z"/>
	<path class="st0" d="M41.06,64.2h-8.63c-0.29,0-0.53,0.24-0.53,0.53c0,0.29,0.24,0.53,0.53,0.53h8.63c0.29,0,0.53-0.24,0.53-0.53
		C41.59,64.43,41.35,64.2,41.06,64.2z"/>
</g>
<g>
	<g>
		<path class="st1" d="M38.24,48.34c-0.79,0-1.41-0.83-1.41-1.88s0.62-1.88,1.41-1.88c0.79,0,1.42,0.83,1.42,1.88
			S39.04,48.34,38.24,48.34z M38.24,45.26c-0.38,0-0.72,0.56-0.72,1.19c0,0.64,0.34,1.19,0.72,1.19c0.39,0,0.72-0.56,0.72-1.19
			C38.96,45.82,38.63,45.26,38.24,45.26z"/>
		<path class="st1" d="M38.24,48.27c-0.75,0-1.35-0.8-1.35-1.82c0-1.02,0.59-1.82,1.35-1.82c0.75,0,1.35,0.8,1.35,1.82
			C39.59,47.47,39,48.27,38.24,48.27z M38.24,45.19c-0.43,0-0.79,0.58-0.79,1.26c0,0.68,0.36,1.26,0.79,1.26
			c0.43,0,0.79-0.58,0.79-1.26C39.03,45.77,38.67,45.19,38.24,45.19z"/>
	</g>
	<g>
		<path class="st1" d="M41.11,49.88c-0.69,0-1.23-0.71-1.23-1.61c0-0.9,0.54-1.61,1.23-1.61c0.69,0,1.23,0.71,1.23,1.61
			C42.34,49.17,41.8,49.88,41.11,49.88z M41.11,47.34c-0.28,0-0.53,0.43-0.53,0.92c0,0.49,0.25,0.92,0.53,0.92
			c0.28,0,0.53-0.43,0.53-0.92C41.64,47.77,41.4,47.34,41.11,47.34z"/>
		<path class="st1" d="M41.11,49.81c-0.65,0-1.16-0.68-1.16-1.54c0-0.87,0.51-1.54,1.16-1.54c0.65,0,1.16,0.68,1.16,1.54
			C42.27,49.13,41.76,49.81,41.11,49.81z M41.11,47.27c-0.33,0-0.6,0.45-0.6,0.99c0,0.54,0.28,0.99,0.6,0.99
			c0.33,0,0.6-0.45,0.6-0.99C41.71,47.73,41.44,47.27,41.11,47.27z"/>
	</g>
	<g>
		<path class="st1" d="M32.38,49.88c-0.69,0-1.23-0.71-1.23-1.61c0-0.9,0.54-1.61,1.23-1.61c0.69,0,1.23,0.71,1.23,1.61
			C33.6,49.17,33.06,49.88,32.38,49.88z M32.38,47.34c-0.28,0-0.53,0.43-0.53,0.92c0,0.49,0.25,0.92,0.53,0.92
			c0.28,0,0.53-0.43,0.53-0.92C32.91,47.77,32.66,47.34,32.38,47.34z"/>
		<path class="st1" d="M32.38,49.81c-0.65,0-1.16-0.68-1.16-1.54c0-0.87,0.51-1.54,1.16-1.54c0.65,0,1.16,0.68,1.16,1.54
			C33.53,49.13,33.03,49.81,32.38,49.81z M32.38,47.27c-0.33,0-0.6,0.45-0.6,0.99c0,0.54,0.28,0.99,0.6,0.99
			c0.33,0,0.6-0.45,0.6-0.99C32.98,47.73,32.7,47.27,32.38,47.27z"/>
	</g>
	<g>
		<path class="st1" d="M35.04,48.34c-0.79,0-1.41-0.83-1.41-1.88s0.62-1.88,1.41-1.88c0.79,0,1.41,0.83,1.41,1.88
			S35.83,48.34,35.04,48.34z M35.04,45.26c-0.38,0-0.72,0.56-0.72,1.19c0,0.64,0.34,1.19,0.72,1.19c0.38,0,0.72-0.56,0.72-1.19
			C35.76,45.82,35.42,45.26,35.04,45.26z"/>
		<path class="st1" d="M35.04,48.27c-0.75,0-1.35-0.8-1.35-1.82c0-1.02,0.59-1.82,1.35-1.82c0.75,0,1.35,0.8,1.35,1.82
			C36.38,47.47,35.79,48.27,35.04,48.27z M35.04,45.19c-0.43,0-0.79,0.58-0.79,1.26c0,0.68,0.36,1.26,0.79,1.26
			c0.43,0,0.79-0.58,0.79-1.26C35.83,45.77,35.47,45.19,35.04,45.19z"/>
	</g>
	<g>
		<g>
			<path class="st1" d="M38.49,54.78c-0.79,0-1.36-0.27-1.74-0.81c-0.39,0.54-0.97,0.81-1.75,0.81c-1.27,0-2.23-0.97-2.23-2.27
				c0-1.41,1.08-2.47,2.08-3.36c0.51-0.45,1.16-0.7,1.84-0.7c0.68,0,1.34,0.25,1.85,0.7c1.25,1.11,2.21,2.05,2.21,3.18
				C40.76,54.03,39.62,54.78,38.49,54.78z M36.75,52.86c0.14,0,0.27,0.09,0.32,0.22c0.23,0.62,0.55,1.01,1.42,1.01
				c0.76,0,1.57-0.46,1.57-1.75c0-0.83-0.9-1.7-1.98-2.66c-0.38-0.34-0.88-0.53-1.39-0.53c-0.51,0-1,0.19-1.38,0.52
				c-0.89,0.79-1.85,1.73-1.85,2.84c0,0.91,0.65,1.57,1.54,1.57c0.9,0,1.21-0.46,1.41-0.95C36.46,52.96,36.59,52.86,36.75,52.86
				L36.75,52.86L36.75,52.86z"/>
			<path class="st1" d="M38.49,54.71c-0.95,0-1.45-0.4-1.74-0.87c-0.29,0.45-0.79,0.87-1.75,0.87c-1.23,0-2.16-0.94-2.16-2.2
				c0-1.38,1.06-2.43,2.06-3.31c1.03-0.91,2.58-0.9,3.6,0.01c1.24,1.1,2.19,2.03,2.19,3.13C40.69,53.98,39.58,54.71,38.49,54.71z
				 M36.75,52.93c0.12,0,0.22,0.07,0.26,0.18c0.23,0.63,0.58,1.05,1.48,1.05c0.79,0,1.64-0.48,1.64-1.82c0-0.86-0.91-1.74-2-2.71
				c-0.82-0.73-2.05-0.73-2.87-0.01c-0.91,0.8-1.87,1.75-1.87,2.9c0,0.95,0.68,1.64,1.61,1.64c0.94,0,1.27-0.48,1.47-0.99l0.02-0.05
				C36.52,53.01,36.62,52.93,36.75,52.93C36.74,52.93,36.75,52.93,36.75,52.93z"/>
		</g>
	</g>
</g>
</svg>
